<svg viewBox="0 0 16 16" role="img" height="16" width="16" color="#ADB5C7" style="display: block;"><g fill="currentColor"><path d="M4.25 2h-3a1 1 0 0 0-1 1.08v11.84a1 1 0 0 0 1 1.08h3a1 1 0 0 0 1-1.08V3.08a1 1 0 0 0-1-1.08m-2.5 10.77a.54.54 0 0 1 0-1.08.54.54 0 0 1 0 1.08m2.5-6.46h-3V5.23h3zm0-2.16h-3V3.08h3zM10.75 14v-1h-3v1a1 1 0 0 0-1 1h5a1 1 0 0 0-1-1"></path><path d="M14.79 0H3.21a1 1 0 0 0-1 1.09h12.58v8.73H6.11V12h8.68a1 1 0 0 0 1-1.09V1.09a1 1 0 0 0-1-1.09M9 11.45a.51.51 0 0 1-.48-.54.48.48 0 1 1 1 0 .51.51 0 0 1-.52.54"></path></g></svg>
