<?xml version="1.0" encoding="iso-8859-1"?>
<!-- Generator: Adobe Illustrator 18.0.0, SVG Export Plug-In . SVG Version: 6.00 Build 0)  -->
<!DOCTYPE svg PUBLIC "-//W3C//DTD SVG 1.1//EN" "http://www.w3.org/Graphics/SVG/1.1/DTD/svg11.dtd">
<svg version="1.1" id="Capa_1" xmlns="http://www.w3.org/2000/svg" xmlns:xlink="http://www.w3.org/1999/xlink" x="0px" y="0px"
	 viewBox="0 0 390 390" style="enable-background:new 0 0 390 390;" xml:space="preserve">
<path d="M389.998,259.702c0-3.568-1.499-6.727-4.097-9.473c2.109-2.152,3.546-4.565,4.099-7.246l-0.002-11.785
	c0-14.546-24.756-22.395-48.049-22.395c-23.293,0-48.049,7.849-48.049,22.397l0.012,11.536l0.026,0.247
	c0.552,2.671,1.98,5.078,4.072,7.223c-1.473,1.554-2.578,3.248-3.274,5.068l-32.749-22.092c2.933-3.133,4.935-6.626,5.73-10.481
	l-0.002-17.833c0-5.402-2.269-10.184-6.2-14.337c3.191-3.257,5.366-6.91,6.203-10.966v-0.299l50.286-22.269
	c2.01,0.147,4.03,0.224,6.032,0.224c17.04,0,35.427-5.349,37.535-15.575v-9.207c0-2.787-1.172-5.257-3.201-7.399
	c1.646-1.683,2.77-3.568,3.201-5.662v-9.205c0-2.788-1.172-5.257-3.201-7.403c1.646-1.679,2.77-3.565,3.201-5.659v-9.203
	c0-2.789-1.172-5.259-3.201-7.402c1.646-1.68,2.77-3.566,3.201-5.659v-9.206c0-11.363-19.34-17.494-37.535-17.494
	c-18.195,0-37.536,6.131-37.536,17.496l0.01,9.013l0.021,0.192c0.431,2.086,1.544,3.965,3.18,5.64
	c-2.036,2.151-3.21,4.627-3.21,7.421l0.01,9.012l0.021,0.191c0.431,2.088,1.544,3.965,3.18,5.643c-2.036,2.149-3.21,4.625-3.21,7.42
	l0.01,9.011l0.021,0.194c0.431,2.087,1.544,3.968,3.18,5.643c-2.036,2.148-3.21,4.623-3.21,7.418l0.01,9.015l0.021,0.192
	c0.778,3.773,3.772,6.879,8.092,9.3l-26.907,11.916l0-1.132c0-5.399-2.269-10.183-6.2-14.337c3.191-3.255,5.366-6.909,6.203-10.965
	l-0.002-17.834c0-5.401-2.269-10.183-6.2-14.337c3.191-3.257,5.366-6.909,6.203-10.965l-0.002-17.835
	c0-22.014-37.465-33.892-72.716-33.892c-35.251,0-72.715,11.878-72.715,33.895l0.018,17.459l0.039,0.373
	c0.835,4.042,2.995,7.683,6.162,10.931c-3.945,4.161-6.218,8.959-6.218,14.373l0.018,17.461l0.039,0.372
	c0.835,4.042,2.995,7.683,6.162,10.931c-3.945,4.163-6.218,8.959-6.218,14.372l0.001,1.13l-26.894-11.91
	c4.33-2.422,7.332-5.531,8.111-9.306l-0.001-9.207c0-2.787-1.172-5.257-3.201-7.399c1.647-1.683,2.771-3.568,3.202-5.662
	l-0.001-9.205c0-2.788-1.172-5.257-3.201-7.403c1.647-1.679,2.771-3.565,3.202-5.659l-0.001-9.203c0-2.789-1.172-5.259-3.201-7.402
	c1.647-1.68,2.771-3.566,3.202-5.659l-0.001-9.206c0-11.363-19.34-17.494-37.536-17.494c-18.195,0-37.535,6.131-37.535,17.496
	l0.011,9.013l0.019,0.192c0.431,2.086,1.546,3.965,3.181,5.64c-2.037,2.151-3.211,4.627-3.211,7.421l0.011,9.012l0.019,0.191
	c0.431,2.088,1.546,3.965,3.181,5.643c-2.037,2.149-3.211,4.625-3.211,7.42l0.011,9.011l0.019,0.194
	c0.431,2.087,1.546,3.968,3.181,5.643c-2.037,2.148-3.211,4.623-3.211,7.418l0.011,9.015l0.019,0.192
	c2.112,10.226,20.467,15.575,37.505,15.575c2.002,0,4.022-0.077,6.033-0.224l50.312,22.281l0.03,0.288
	c0.835,4.042,2.995,7.685,6.162,10.931c-3.945,4.162-6.218,8.958-6.218,14.374l0.018,17.46l0.039,0.371
	c0.794,3.847,2.787,7.333,5.705,10.461l-32.783,22.115c-0.694-1.812-1.795-3.498-3.26-5.047c2.107-2.152,3.546-4.565,4.099-7.246
	l-0.002-11.785c0-14.546-24.756-22.395-48.049-22.395c-23.294,0-48.05,7.849-48.05,22.397l0.011,11.536l0.026,0.247
	c0.552,2.671,1.98,5.078,4.072,7.223C1.503,252.956,0,256.127,0,259.703l0.011,11.538l0.026,0.246
	c0.552,2.67,1.98,5.078,4.072,7.222C1.503,281.461,0,284.63,0,288.207l0.011,11.539l0.026,0.247c0.552,2.669,1.98,5.077,4.072,7.222
	C1.503,309.964,0,313.133,0,316.712l0.011,11.538l0.026,0.246c2.703,13.09,26.2,19.939,48.013,19.939
	c21.812,0,45.349-6.849,48.051-19.939l-0.002-11.784c0-3.57-1.5-6.73-4.097-9.475c2.107-2.152,3.546-4.565,4.099-7.245
	l-0.002-11.785c0-3.568-1.5-6.729-4.097-9.474c1.67-1.704,2.911-3.576,3.633-5.612l45.566-30.738
	c14.249,6.933,34.456,10.496,53.797,10.496c19.334,0,39.552-3.561,53.816-10.486l45.601,30.762c0.72,2.014,1.947,3.868,3.594,5.556
	c-2.606,2.752-4.11,5.921-4.11,9.497l0.012,11.539l0.026,0.247c0.552,2.669,1.98,5.077,4.072,7.222
	c-2.606,2.751-4.11,5.919-4.11,9.499l0.012,11.538l0.026,0.246c2.703,13.09,26.2,19.939,48.011,19.939
	c21.814,0,45.35-6.849,48.051-19.939l-0.002-11.784c0-3.57-1.499-6.73-4.097-9.475c2.109-2.152,3.546-4.565,4.099-7.245
	l-0.002-11.785c0-3.568-1.499-6.729-4.097-9.474c2.109-2.151,3.546-4.565,4.099-7.246L389.998,259.702z M324.035,56.415
	c18.152,0,29.266,5.972,29.266,9.224c0,3.253-11.114,9.225-29.266,9.225c-18.154,0-29.265-5.972-29.265-9.225
	C294.77,62.387,305.881,56.415,324.035,56.415z M296.668,85.193c7.331,3.452,17.565,5.228,27.368,5.228
	c9.797,0,20.037-1.772,27.374-5.22c1.233,0.979,1.892,1.92,1.892,2.705c0,3.251-11.114,9.224-29.266,9.224
	c-18.154,0-29.265-5.973-29.265-9.224C294.77,87.119,295.429,86.176,296.668,85.193z M296.668,107.464
	c7.331,3.451,17.565,5.224,27.368,5.224c9.797,0,20.037-1.772,27.374-5.221c1.233,0.978,1.892,1.92,1.892,2.705
	c0,3.251-11.114,9.224-29.266,9.224c-18.154,0-29.265-5.973-29.265-9.224C294.77,109.387,295.429,108.443,296.668,107.464z
	 M296.668,129.729c7.331,3.45,17.565,5.227,27.368,5.227c9.797,0,20.037-1.776,27.374-5.222c1.233,0.979,1.892,1.92,1.892,2.705
	c0,3.252-11.114,9.225-29.266,9.225c-18.154,0-29.265-5.973-29.265-9.225C294.77,131.653,295.429,130.708,296.668,129.729z
	 M65.964,56.415c18.154,0,29.265,5.972,29.265,9.224c0,3.253-11.111,9.225-29.265,9.225c-18.153,0-29.263-5.972-29.263-9.225
	C36.701,62.387,47.812,56.415,65.964,56.415z M38.598,85.193c7.33,3.452,17.565,5.228,27.367,5.228
	c9.798,0,20.037-1.772,27.374-5.22c1.235,0.979,1.891,1.92,1.891,2.705c0,3.251-11.111,9.224-29.265,9.224
	c-18.153,0-29.263-5.973-29.263-9.224C36.701,87.119,37.358,86.176,38.598,85.193z M38.598,107.464
	c7.33,3.451,17.565,5.224,27.367,5.224c9.798,0,20.037-1.772,27.374-5.221c1.235,0.978,1.891,1.92,1.891,2.705
	c0,3.251-11.111,9.224-29.265,9.224c-18.153,0-29.263-5.973-29.263-9.224C36.701,109.387,37.358,108.443,38.598,107.464z
	 M36.701,132.439c0-0.785,0.657-1.73,1.896-2.71c7.33,3.45,17.565,5.227,27.367,5.227c9.798,0,20.037-1.776,27.374-5.222
	c1.235,0.979,1.891,1.92,1.891,2.705c0,3.252-11.111,9.225-29.265,9.225C47.812,141.663,36.701,135.69,36.701,132.439z
	 M194.998,57.588c35.167,0,56.695,11.57,56.695,17.87c0,6.302-21.528,17.871-56.695,17.871c-35.167,0-56.694-11.569-56.694-17.871
	C138.304,69.158,159.831,57.588,194.998,57.588z M141.981,113.344c14.2,6.688,34.025,10.124,53.017,10.124
	c18.979,0,38.816-3.432,53.032-10.113c2.39,1.896,3.664,3.721,3.664,5.24c0,6.299-21.528,17.871-56.695,17.871
	c-35.167,0-56.694-11.571-56.694-17.871C138.304,117.072,139.58,115.244,141.981,113.344z M141.981,156.481
	c14.2,6.686,34.025,10.125,53.017,10.125c18.979,0,38.816-3.436,53.032-10.115c2.39,1.896,3.664,3.721,3.664,5.239
	c0,6.3-21.528,17.872-56.695,17.872c-35.167,0-56.694-11.573-56.694-17.872C138.304,160.21,139.58,158.379,141.981,156.481z
	 M48.05,219.39c23.237,0,37.463,7.646,37.463,11.809c0,4.164-14.226,11.809-37.463,11.809c-23.239,0-37.463-7.645-37.463-11.809
	C10.586,227.036,24.811,219.39,48.05,219.39z M13.016,256.232c9.385,4.419,22.484,6.691,35.034,6.691
	c12.541,0,25.648-2.269,35.042-6.682c1.579,1.253,2.421,2.458,2.421,3.461c0,4.164-14.226,11.809-37.463,11.809
	c-23.239,0-37.463-7.645-37.463-11.809C10.586,258.696,11.43,257.489,13.016,256.232z M48.05,328.519
	c-23.239,0-37.463-7.646-37.463-11.808c0-1.007,0.844-2.215,2.43-3.47c9.385,4.419,22.484,6.691,35.034,6.691
	c12.541,0,25.648-2.27,35.042-6.684c1.579,1.253,2.421,2.458,2.421,3.463C85.513,320.873,71.287,328.519,48.05,328.519z
	 M48.05,300.015c-23.239,0-37.463-7.645-37.463-11.808c0-1.006,0.844-2.214,2.43-3.469c9.385,4.418,22.484,6.69,35.034,6.69
	c12.541,0,25.648-2.269,35.042-6.685c1.579,1.254,2.421,2.459,2.421,3.463C85.513,292.369,71.287,300.015,48.05,300.015z
	 M138.304,204.869c0-1.523,1.276-3.352,3.678-5.251c14.2,6.686,34.025,10.125,53.017,10.125c18.979,0,38.816-3.436,53.032-10.113
	c2.39,1.895,3.664,3.721,3.664,5.24c0,6.299-21.528,17.869-56.695,17.869C159.831,222.738,138.304,211.168,138.304,204.869z
	 M341.949,328.519c-23.237,0-37.462-7.646-37.462-11.808c0-1.007,0.842-2.215,2.43-3.47c9.383,4.419,22.483,6.691,35.032,6.691
	c12.542,0,25.648-2.27,35.042-6.684c1.579,1.253,2.421,2.458,2.421,3.463C379.412,320.873,365.186,328.519,341.949,328.519z
	 M341.949,300.015c-23.237,0-37.462-7.645-37.462-11.808c0-1.006,0.842-2.214,2.43-3.469c9.383,4.418,22.483,6.69,35.032,6.69
	c12.542,0,25.648-2.269,35.042-6.685c1.579,1.254,2.421,2.459,2.421,3.463C379.412,292.369,365.186,300.015,341.949,300.015z
	 M341.949,271.511c-23.237,0-37.462-7.645-37.462-11.809c0-1.006,0.842-2.213,2.43-3.47c9.383,4.419,22.483,6.691,35.032,6.691
	c12.542,0,25.648-2.269,35.042-6.682c1.579,1.253,2.421,2.458,2.421,3.461C379.412,263.866,365.186,271.511,341.949,271.511z
	 M341.949,243.008c-23.237,0-37.462-7.645-37.462-11.809c0-4.163,14.225-11.809,37.462-11.809c23.238,0,37.463,7.646,37.463,11.809
	C379.412,235.362,365.186,243.008,341.949,243.008z"/>
<g>
</g>
<g>
</g>
<g>
</g>
<g>
</g>
<g>
</g>
<g>
</g>
<g>
</g>
<g>
</g>
<g>
</g>
<g>
</g>
<g>
</g>
<g>
</g>
<g>
</g>
<g>
</g>
<g>
</g>
</svg>
