<?xml version="1.0" encoding="iso-8859-1"?>
<!-- Generator: Adobe Illustrator 19.0.0, SVG Export Plug-In . SVG Version: 6.00 Build 0)  -->
<svg version="1.1" id="Layer_1" xmlns="http://www.w3.org/2000/svg" xmlns:xlink="http://www.w3.org/1999/xlink" x="0px" y="0px"
	 viewBox="0 0 512 512" style="enable-background:new 0 0 512 512;" xml:space="preserve">
<g>
	<g>
		<path d="M466.681,278.257c-18.397-10.513-42.475-16.303-67.797-16.303c-11.825,0-23.367,1.278-34.197,3.695l-25.111-43.494
			c11.37-10.788,17.633-23.884,17.633-37.596V65.488c0-19.125-12.178-37.052-33.412-49.185C305.4,5.79,281.323,0,256,0
			c-25.321,0-49.4,5.79-67.797,16.303c-21.234,12.133-33.412,30.06-33.412,49.185v119.07c0,13.712,6.262,26.809,17.633,37.596
			l-25.111,43.494c-10.831-2.417-22.373-3.695-34.197-3.695c-25.321,0-49.4,5.79-67.797,16.303
			c-21.234,12.133-33.412,30.06-33.412,49.185v119.07c0,19.125,12.178,37.052,33.412,49.185C63.717,506.21,87.795,512,113.116,512
			c25.321,0,49.4-5.79,67.797-16.303c21.234-12.133,33.412-30.06,33.412-49.185v-82.663h83.349v82.663
			c0,19.125,12.178,37.052,33.412,49.185C349.484,506.21,373.561,512,398.884,512s49.4-5.79,67.797-16.303
			c21.234-12.133,33.412-30.06,33.412-49.185v-119.07C500.093,308.317,487.915,290.39,466.681,278.257z M178.605,446.512
			c0,12.137-25.512,29.767-65.488,29.767s-65.488-17.631-65.488-29.767v-9.091c18.083,9.708,41.206,15.044,65.488,15.044
			c24.282,0,47.405-5.337,65.488-15.044V446.512z M178.605,386.977c0,12.137-25.512,29.767-65.488,29.767
			s-65.488-17.631-65.488-29.767v-9.091c18.083,9.708,41.206,15.044,65.488,15.044c24.282,0,47.405-5.337,65.488-15.044V386.977z
			 M113.116,357.209c-39.977,0-65.488-17.631-65.488-29.767c0-12.137,25.512-29.767,65.488-29.767s65.488,17.631,65.488,29.767
			C178.605,339.579,153.093,357.209,113.116,357.209z M256,35.721c39.977,0,65.488,17.631,65.488,29.767
			c0,12.137-25.512,29.767-65.488,29.767s-65.488-17.631-65.488-29.767C190.512,53.352,216.023,35.721,256,35.721z M190.512,115.932
			c18.083,9.708,41.206,15.044,65.488,15.044c24.283,0,47.405-5.337,65.488-15.044v9.091c0,12.137-25.512,29.767-65.488,29.767
			s-65.488-17.631-65.488-29.767V115.932z M190.512,175.467c18.083,9.708,41.206,15.044,65.488,15.044
			c24.283,0,47.405-5.337,65.488-15.044v9.091c0,12.137-25.512,29.767-65.488,29.767s-65.488-17.631-65.488-29.767V175.467z
			 M297.674,327.442v0.686h-83.349v-0.686c0-19.042-12.076-36.894-33.138-49.025l21.77-37.707
			c15.73,6.073,34.036,9.336,53.043,9.336s37.314-3.264,53.043-9.336l21.77,37.707C309.75,290.548,297.674,308.4,297.674,327.442z
			 M464.372,446.512c0,12.137-25.512,29.767-65.488,29.767s-65.488-17.631-65.488-29.767v-9.091
			c18.083,9.708,41.205,15.044,65.488,15.044c24.283,0,47.405-5.337,65.488-15.044V446.512z M464.372,386.977
			c0,12.137-25.512,29.767-65.488,29.767s-65.488-17.631-65.488-29.767v-9.091c18.083,9.708,41.205,15.044,65.488,15.044
			c24.283,0,47.405-5.337,65.488-15.044V386.977z M398.884,357.209c-39.977,0-65.488-17.631-65.488-29.767
			c0-12.137,25.512-29.767,65.488-29.767s65.488,17.631,65.488,29.767C464.372,339.579,438.86,357.209,398.884,357.209z"/>
	</g>
</g>
<g>
</g>
<g>
</g>
<g>
</g>
<g>
</g>
<g>
</g>
<g>
</g>
<g>
</g>
<g>
</g>
<g>
</g>
<g>
</g>
<g>
</g>
<g>
</g>
<g>
</g>
<g>
</g>
<g>
</g>
</svg>
