<?xml version="1.0" encoding="iso-8859-1"?>
<!-- Generator: Adobe Illustrator 19.0.0, SVG Export Plug-In . SVG Version: 6.00 Build 0)  -->
<svg version="1.1" id="Layer_1" xmlns="http://www.w3.org/2000/svg" xmlns:xlink="http://www.w3.org/1999/xlink" x="0px" y="0px"
	 viewBox="0 0 512 512" style="enable-background:new 0 0 512 512;" xml:space="preserve">
<g>
	<g>
		<path d="M343.124,102.271c-23.561,12.958-54.501,20.094-87.124,20.094s-63.564-7.136-87.124-20.094
			c-4.478-2.464-8.612-5.097-12.407-7.878v13.628v3.345c0,23.341,40.876,49.348,99.531,49.348s99.531-26.007,99.531-49.348v-3.345
			V94.393C351.736,97.174,347.603,99.809,343.124,102.271z"/>
	</g>
</g>
<g>
	<g>
		<path d="M326.194,15.746C308,5.739,282.416,0,256,0s-52.001,5.739-70.194,15.746c-14.924,8.208-23.482,18.366-23.482,27.872
			c0,9.506,8.559,19.664,23.482,27.872C204,81.496,229.584,87.236,256,87.236s52-5.739,70.194-15.746
			c14.923-8.208,23.482-18.368,23.482-27.872S341.117,23.954,326.194,15.746z"/>
	</g>
</g>
<g>
	<g>
		<path d="M202.609,371.591c-23.56,12.958-54.501,20.094-87.124,20.094s-63.564-7.136-87.124-20.094
			c-4.478-2.464-8.612-5.097-12.407-7.878v15.3v1.672c0,23.341,40.876,49.348,99.531,49.348c58.656,0,99.531-26.007,99.531-49.348
			v-1.672v-15.3C211.221,366.494,207.087,369.127,202.609,371.591z"/>
	</g>
</g>
<g>
	<g>
		<path d="M483.638,371.591c-23.561,12.958-54.501,20.094-87.124,20.094s-63.563-7.136-87.124-20.094
			c-4.478-2.463-8.612-5.097-12.407-7.878v15.3v1.672c0,23.341,40.876,49.348,99.531,49.348s99.531-26.007,99.531-49.348v-1.672
			v-15.3C492.251,366.494,488.117,369.128,483.638,371.591z"/>
	</g>
</g>
<g>
	<g>
		<path d="M466.707,285.065c-18.193-10.007-43.777-15.746-70.193-15.746c-8.85,0-17.598,0.659-26.015,1.891l-30.994-53.681
			c10.277-7.989,16.026-17.117,16.026-25.869v-22.843c-24.446,16.702-59.71,27.024-99.531,27.024s-75.086-10.322-99.531-27.024
			v22.843c0,8.753,5.747,17.879,16.025,25.869L141.5,271.211c-8.417-1.233-17.165-1.891-26.015-1.891
			c-26.416,0-52.001,5.739-70.194,15.746c-14.924,8.208-23.482,18.368-23.482,27.872s8.559,19.664,23.482,27.872
			c18.194,10.006,43.778,15.746,70.194,15.746s52.001-5.739,70.194-15.746c14.924-8.208,23.482-18.368,23.482-27.872
			s-8.559-19.664-23.482-27.872c-2.851-1.568-5.903-3.019-9.091-4.371l27.348-47.37c14.787,4.756,32.421,7.683,52.063,7.683
			s37.276-2.926,52.064-7.683l27.349,47.37c-3.19,1.352-6.241,2.803-9.092,4.371c-14.923,8.208-23.482,18.368-23.482,27.872
			s8.56,19.664,23.482,27.872c18.194,10.006,43.78,15.746,70.194,15.746s52-5.739,70.194-15.746
			c14.923-8.208,23.482-18.368,23.482-27.872S481.63,293.274,466.707,285.065z"/>
	</g>
</g>
<g>
	<g>
		<path d="M396.515,465.162c-39.741,0-74.943-10.282-99.384-26.925l-0.001-0.007h-0.009c-0.046-0.03-0.091-0.061-0.137-0.093v0.093
			h-81.967v-0.093c-24.445,16.703-59.711,27.024-99.531,27.024s-75.086-10.322-99.531-27.024v24.515
			c0,23.341,40.876,49.348,99.531,49.348c49.757,0,86.706-18.715,96.776-38.642h87.479C309.809,493.285,346.757,512,396.515,512
			c58.655,0,99.531-26.007,99.531-49.348v-24.515C471.6,454.84,436.335,465.162,396.515,465.162z"/>
	</g>
</g>
<g>
</g>
<g>
</g>
<g>
</g>
<g>
</g>
<g>
</g>
<g>
</g>
<g>
</g>
<g>
</g>
<g>
</g>
<g>
</g>
<g>
</g>
<g>
</g>
<g>
</g>
<g>
</g>
<g>
</g>
</svg>
