<!--?xml version="1.0" encoding="utf-8"?-->
<!-- Generator: Adobe Illustrator 18.0.0, SVG Export Plug-In . SVG Version: 6.00 Build 0)  -->

<svg version="1.1" id="_x32_" xmlns="http://www.w3.org/2000/svg" xmlns:xlink="http://www.w3.org/1999/xlink" x="0px" y="0px" viewBox="0 0 512 512" style="width: 256px; height: 256px; opacity: 1;" xml:space="preserve">
<style type="text/css">
	.st0{fill:#000000;}
</style>
<g>
	<path class="st0" d="M280,409.076V366.25h-48v42.826c-2.695,2.078-5.094,4.478-7.174,7.174H116.5v48h108.326
		c7.225,9.365,18.432,15.5,31.174,15.5c12.742,0,23.949-6.135,31.174-15.5H395.5v-48H287.174
		C285.094,413.554,282.695,411.154,280,409.076z"></path>
	<path class="st0" d="M0,32.25v144h512v-144H0z M436,104.25c0,13.254-10.746,24-24,24c-13.254,0-24-10.746-24-24
		c0-13.256,10.746-24,24-24C425.254,80.25,436,90.994,436,104.25z M48.053,136.143L80,72.25h22.146l9.801,0.106L80,136.25H57.808
		L48.053,136.143z M112.053,136.143L144,72.25h22.146l9.801,0.106L144,136.25h-22.192L112.053,136.143z M176.053,136.143L208,72.25
		h22.146l9.801,0.106L208,136.25h-22.192L176.053,136.143z"></path>
	<path class="st0" d="M280,190.25h-48v18H0v144h512v-144H280V190.25z M48.053,312.143L80,248.25h22.146l9.801,0.106L80,312.25
		H57.808L48.053,312.143z M112.053,312.143L144,248.25h22.146l9.801,0.106L144,312.25h-22.192L112.053,312.143z M176.053,312.143
		L208,248.25h22.146l9.801,0.106L208,312.25h-22.192L176.053,312.143z M388,280.25c0-13.256,10.746-24,24-24
		c13.254,0,24,10.744,24,24c0,13.254-10.746,24-24,24C398.746,304.25,388,293.504,388,280.25z"></path>
</g>
</svg>
