<!--?xml version="1.0" encoding="utf-8"?-->
<!-- Generator: Adobe Illustrator 18.1.1, SVG Export Plug-In . SVG Version: 6.00 Build 0)  -->

<svg version="1.1" id="_x32_" xmlns="http://www.w3.org/2000/svg" xmlns:xlink="http://www.w3.org/1999/xlink" x="0px" y="0px" viewBox="0 0 512 512" style="width: 256px; height: 256px; opacity: 1;" xml:space="preserve">
<style type="text/css">
	.st0{fill:#4B4B4B;}
</style>
<g>
	<path class="st0" d="M189.548,189.529c41.968-41.968,41.968-110.008,0-151.977L37.571,189.529
		C79.539,231.498,147.57,231.506,189.548,189.529z" style="fill: rgb(0, 0, 0);"></path>
	<polygon class="st0" points="163.213,261.9 344.192,442.842 442.861,344.174 261.9,163.213 	" style="fill: rgb(0, 0, 0);"></polygon>
	<path class="st0" d="M0,427.669L84.331,512l151.281-151.3l-84.322-84.332L0,427.669z M107.302,351.559l19.645,19.636l-32.14,32.131
		L75.17,383.7L107.302,351.559z M31.21,427.669l30.122-30.121l19.626,19.636l-30.112,30.103L31.21,427.669z M84.331,480.761
		l-19.626-19.626l30.102-30.112l19.636,19.627L84.331,480.761z M128.291,436.801l-19.626-19.618l32.131-32.14l19.627,19.627
		L128.291,436.801z M204.383,360.7l-30.102,30.111l-19.626-19.626l30.111-30.102L204.383,360.7z M140.806,357.336L121.17,337.71
		l30.121-30.102l19.617,19.618L140.806,357.336z" style="fill: rgb(0, 0, 0);"></path>
	<path class="st0" d="M512,84.312L427.669,0L276.388,151.281l84.322,84.322L512,84.312z M404.67,160.423l-19.627-19.627l32.14-32.14
		l19.627,19.626L404.67,160.423z M480.78,84.312l-30.112,30.112l-19.626-19.616l30.112-30.122L480.78,84.312z M427.678,31.21
		l19.626,19.626l-30.122,30.112l-19.616-19.616L427.678,31.21z M383.709,75.17l19.626,19.637l-32.14,32.14l-19.627-19.627
		L383.709,75.17z M307.608,151.272l30.102-30.112l19.626,19.645l-30.102,30.093L307.608,151.272z M371.204,154.645l19.626,19.616
		l-30.121,30.122l-19.617-19.636L371.204,154.645z" style="fill: rgb(0, 0, 0);"></path>
	<path class="st0" d="M92.59,92.599c8.521-8.512,8.521-22.314,0.018-30.817c-8.53-8.511-22.323-8.511-30.826,0
		c-8.502,8.503-8.502,22.295,0,30.817C70.285,101.102,84.096,101.102,92.59,92.599z" style="fill: rgb(0, 0, 0);"></path>
</g>
</svg>
