<!--?xml version="1.0" encoding="utf-8"?-->
<!-- Generator: Adobe Illustrator 18.1.1, SVG Export Plug-In . SVG Version: 6.00 Build 0)  -->

<svg version="1.1" id="_x32_" xmlns="http://www.w3.org/2000/svg" xmlns:xlink="http://www.w3.org/1999/xlink" x="0px" y="0px" viewBox="0 0 512 512" style="width: 256px; height: 256px; opacity: 1;" xml:space="preserve">
<style type="text/css">
	.st0{fill:#4B4B4B;}
</style>
<g>
	<path class="st0" d="M260.288,260.296c-33.86,33.869-33.86,88.793,0,122.679l122.688-122.679
		C349.098,226.41,294.174,226.41,260.288,260.296z" style="fill: rgb(0, 0, 0);"></path>
	<polygon class="st0" points="135.467,55.819 55.819,135.467 201.888,281.536 281.553,201.87 	" style="fill: rgb(0, 0, 0);"></polygon>
	<path class="st0" d="M413.29,68.063L345.219,0l-122.11,122.118l68.063,68.071L413.29,68.063z M326.683,129.508l-15.86-15.851
		l25.944-25.944l15.851,15.842L326.683,129.508z M388.101,68.063l-24.31,24.31l-15.842-15.85l24.302-24.302L388.101,68.063z
		 M345.219,25.216l15.841,15.833L336.767,65.36l-15.842-15.851L345.219,25.216z M309.744,60.699l15.833,15.825l-25.926,25.952
		L283.8,86.634L309.744,60.699z M248.316,122.118l24.302-24.302l15.842,15.842l-24.312,24.293L248.316,122.118z M299.633,124.83
		l15.851,15.85l-24.302,24.302l-15.834-15.833L299.633,124.83z" style="fill: rgb(0, 0, 0);"></path>
	<path class="st0" d="M0.009,345.21l68.071,68.063l122.118-122.118l-68.053-68.045L0.009,345.21z M86.651,283.783l15.842,15.842
		l-25.943,25.952l-15.842-15.851L86.651,283.783z M25.224,345.21l24.293-24.294l15.842,15.833L41.066,361.06L25.224,345.21z
		 M68.08,388.075l-15.85-15.833l24.32-24.312l15.833,15.833L68.08,388.075z M103.573,352.6l-15.851-15.851l25.943-25.952
		l15.842,15.851L103.573,352.6z M164.991,291.172l-24.284,24.294l-15.851-15.842l24.294-24.293L164.991,291.172z M113.665,288.442
		l-15.851-15.824l24.33-24.32l15.833,15.842L113.665,288.442z" style="fill: rgb(0, 0, 0);"></path>
	<path class="st0" d="M363.421,338.522c-6.862-6.846-18.009-6.854-24.855,0c-6.89,6.864-6.89,18.019-0.017,24.882
		c6.881,6.872,18.01,6.872,24.872,0C370.293,356.541,370.293,345.412,363.421,338.522z" style="fill: rgb(0, 0, 0);"></path>
	<path class="st0" d="M493.683,378.64c-5.292,27.61-18.536,53.888-39.837,75.18c-21.31,21.31-47.587,34.562-75.172,39.881
		L382.194,512c31.087-5.976,60.831-20.993,84.835-44.997c24.004-24.004,39.002-53.756,44.962-84.852L493.683,378.64z" style="fill: rgb(0, 0, 0);"></path>
	<path class="st0" d="M466.433,372.277l-18.344-3.344c-3.484,19.089-12.489,37.248-27.181,51.94
		c-14.7,14.692-32.877,23.714-51.948,27.225l3.361,18.325c22.608-4.124,44.312-14.92,61.769-32.377
		C451.53,416.608,462.315,394.894,466.433,372.277z" style="fill: rgb(0, 0, 0);"></path>
	<path class="st0" d="M401.143,401.108c10.926-10.928,17.492-24.645,19.748-38.82l-18.396-2.949
		c-1.703,10.532-6.495,20.538-14.543,28.586v0.008c-8.065,8.049-18.062,12.849-28.585,14.543l2.966,18.396
		c14.156-2.265,27.866-8.829,38.793-19.757L401.143,401.108z" style="fill: rgb(0, 0, 0);"></path>
</g>
</svg>
