<!--?xml version="1.0" encoding="utf-8"?-->
<!-- Generator: Adobe Illustrator 18.1.1, SVG Export Plug-In . SVG Version: 6.00 Build 0)  -->

<svg version="1.1" id="_x32_" xmlns="http://www.w3.org/2000/svg" xmlns:xlink="http://www.w3.org/1999/xlink" x="0px" y="0px" viewBox="0 0 512 512" style="width: 256px; height: 256px; opacity: 1;" xml:space="preserve">
<style type="text/css">
	.st0{fill:#4B4B4B;}
</style>
<g>
	<path class="st0" d="M326.75,128.859c-4.914-9.385-10.558-17.846-16.12-23.851c6.891-10.373,10.928-22.798,10.928-36.211
		C321.55,32.595,292.202,3.247,256,3.238c-36.202,0.009-65.55,29.357-65.55,65.558c0,13.394,4.037,25.838,10.928,36.211
		c-5.571,6.005-11.206,14.466-16.12,23.851c-4.933,9.515-9.025,19.704-10.568,29.292c-0.508,3.187-0.748,6.3-0.748,9.312
		c-0.037,10.023,2.855,19.075,7.916,26.373c7.602,11.02,19.343,17.976,32.304,22.317c13.006,4.324,27.528,6.125,41.836,6.134
		c19.085-0.046,38.529-3.132,54.28-11.399c7.861-4.148,14.826-9.709,19.87-17.052c5.053-7.298,7.944-16.342,7.916-26.373
		c0-3.022-0.24-6.125-0.758-9.312C335.775,148.562,331.683,138.374,326.75,128.859z M222.394,35.191
		c8.628-8.628,20.452-13.93,33.606-13.93c13.154,0,24.988,5.303,33.615,13.93c8.61,8.628,13.931,20.461,13.931,33.606
		c-0.01,13.154-5.312,24.969-13.931,33.606c-8.628,8.609-20.461,13.92-33.615,13.92c-13.154-0.008-24.978-5.311-33.606-13.92
		c-8.62-8.628-13.931-20.452-13.931-33.606C208.464,55.652,213.775,43.819,222.394,35.191z M315.296,183.656
		c-4.481,6.568-12.545,11.88-23.159,15.408c-10.558,3.529-23.352,5.21-36.137,5.191c-17.034,0.046-34.105-3.03-45.864-9.311
		c-5.894-3.104-10.411-6.91-13.423-11.308c-3.002-4.416-4.73-9.459-4.757-16.174c0-2.004,0.166-4.185,0.527-6.513
		c0.988-6.439,4.416-15.501,8.748-23.759c3.87-7.464,8.498-14.318,12.221-18.595c11.454,9.8,26.298,15.75,42.548,15.75
		c16.258,0,31.103-5.949,42.557-15.741c3.714,4.268,8.35,11.122,12.221,18.586c4.332,8.258,7.76,17.32,8.738,23.759
		c0.37,2.328,0.536,4.489,0.536,6.513C320.026,174.178,318.298,179.222,315.296,183.656z"></path>
	<path class="st0" d="M152.817,400.055c-4.923-9.386-10.558-17.848-16.138-23.852c6.91-10.364,10.947-22.817,10.947-36.22
		c-0.01-36.212-29.357-65.55-65.559-65.559c-36.202,0.01-65.54,29.348-65.55,65.559c0,13.394,4.037,25.837,10.938,36.22
		c-5.561,5.986-11.224,14.447-16.138,23.852c-4.933,9.514-9.016,19.694-10.568,29.283C0.25,432.533,0,435.638,0,438.649
		c-0.027,10.014,2.855,19.085,7.917,26.383c7.603,11.011,19.352,17.976,32.304,22.318c13.016,4.332,27.527,6.115,41.846,6.133
		c19.085-0.037,38.538-3.132,54.289-11.399c7.842-4.156,14.825-9.718,19.851-17.043c5.053-7.307,7.953-16.36,7.926-26.373
		c0-3.03-0.25-6.134-0.758-9.33C161.832,419.749,157.74,409.569,152.817,400.055z M48.461,306.368
		c8.637-8.61,20.461-13.912,33.606-13.931c13.154,0.019,24.978,5.321,33.606,13.931c8.629,8.628,13.921,20.452,13.93,33.615
		c-0.009,13.144-5.302,24.969-13.93,33.615c-8.628,8.609-20.452,13.912-33.606,13.912c-13.145,0-24.978-5.303-33.616-13.912
		c-8.61-8.646-13.912-20.471-13.912-33.615C34.54,326.82,39.842,314.996,48.461,306.368z M141.363,454.842
		c-4.481,6.586-12.554,11.889-23.159,15.418c-10.549,3.529-23.362,5.21-36.137,5.21c-17.034,0.037-34.114-3.049-45.864-9.32
		c-5.902-3.123-10.411-6.92-13.431-11.326c-3.002-4.416-4.73-9.469-4.748-16.175c0-2.014,0.166-4.185,0.536-6.503
		c0.98-6.448,4.398-15.5,8.739-23.759c3.87-7.473,8.508-14.318,12.23-18.604c11.446,9.81,26.29,15.759,42.539,15.759
		c16.249,0,31.084-5.949,42.539-15.74c3.722,4.258,8.36,11.113,12.23,18.586c4.342,8.259,7.76,17.311,8.739,23.759
		c0.369,2.31,0.536,4.489,0.536,6.522C146.083,445.374,144.356,450.426,141.363,454.842z"></path>
	<path class="st0" d="M511.252,429.338c-1.552-9.589-5.635-19.769-10.568-29.283c-4.914-9.404-10.577-17.866-16.138-23.852
		c6.901-10.384,10.938-22.826,10.938-36.22c-0.01-36.212-29.348-65.55-65.55-65.559c-36.202,0.01-65.55,29.348-65.559,65.559
		c0,13.394,4.037,25.837,10.938,36.22c-5.561,5.986-11.215,14.466-16.138,23.86c-4.914,9.506-9.006,19.686-10.558,29.274
		c-0.498,3.195-0.748,6.3-0.748,9.33c-0.028,10.014,2.864,19.066,7.916,26.373c7.612,11.002,19.344,17.976,32.304,22.309
		c13.015,4.332,27.537,6.115,41.846,6.133c19.085-0.037,38.539-3.132,54.289-11.399c7.851-4.156,14.826-9.718,19.86-17.052
		c5.044-7.298,7.944-16.35,7.917-26.383C512,435.638,511.741,432.533,511.252,429.338z M396.328,306.368
		c8.628-8.61,20.452-13.912,33.606-13.921c13.144,0.01,24.968,5.312,33.606,13.921c8.619,8.628,13.921,20.452,13.921,33.615
		c0,13.144-5.302,24.969-13.921,33.615c-8.628,8.609-20.461,13.912-33.606,13.912c-13.154,0-24.978-5.303-33.606-13.912
		c-8.628-8.646-13.93-20.471-13.93-33.615C382.397,326.82,387.7,314.996,396.328,306.368z M489.23,454.842
		c-4.481,6.586-12.545,11.889-23.159,15.418c-10.549,3.529-23.361,5.21-36.137,5.21c-17.044,0.037-34.123-3.049-45.864-9.312
		c-5.894-3.122-10.42-6.928-13.432-11.316c-2.993-4.424-4.72-9.468-4.748-16.174c0-2.023,0.167-4.194,0.527-6.522
		c0.988-6.448,4.406-15.5,8.748-23.759c3.861-7.473,8.498-14.318,12.222-18.604c11.454,9.81,26.298,15.759,42.548,15.759
		c16.249,0,31.084-5.949,42.539-15.74c3.722,4.258,8.36,11.113,12.23,18.586c4.342,8.259,7.76,17.311,8.739,23.759
		c0.369,2.318,0.536,4.489,0.536,6.503C493.95,445.374,492.231,450.418,489.23,454.842z"></path>
	<path class="st0" d="M102.629,211.008l-19.5-4.388c4.185-13.561,11.021-26.271,20.203-37.32
		c4.766-5.745,10.179-11.047,16.202-15.777c5.867-4.61,12.24-8.693,19.168-12.083l-7.953-16.175
		c-8.102,3.981-15.556,8.749-22.346,14.088c-7.03,5.534-13.357,11.731-18.937,18.428c-11.03,13.275-19.084,28.581-23.925,44.876
		l-22.317-5.016l22.28,49.015L102.629,211.008z"></path>
	<path class="st0" d="M281.948,470.796c-7.991,1.838-16.202,2.789-24.442,2.789c-6.096,0-12.212-0.517-18.29-1.552
		c-7.354-1.266-14.65-3.298-21.754-6.152c-6.919-2.752-13.644-6.254-20.064-10.549l-10.014,15.001
		c7.501,5.007,15.344,9.072,23.38,12.277c8.295,3.326,16.822,5.709,25.412,7.178c7.085,1.219,14.226,1.81,21.33,1.81
		c10.068,0,20.064-1.256,29.8-3.603l6.475,20.766l31.306-43.786l-49.42-14.336L281.948,470.796z"></path>
	<path class="st0" d="M406.322,166.53c10.106,10.623,18.096,23.241,23.241,37.18c2.596,6.993,4.481,14.346,5.561,21.921
		c0.74,5.108,1.118,10.3,1.118,15.575c0,2.337-0.074,4.692-0.231,7.075l17.985,1.164c0.176-2.762,0.269-5.506,0.269-8.24
		c0-6.152-0.453-12.212-1.294-18.143c-1.274-8.849-3.472-17.432-6.503-25.597c-6.142-16.646-15.759-31.62-27.924-44.183
		l15.325-16.619l-53.577-5.201l12.295,49.957L406.322,166.53z"></path>
</g>
</svg>
