<!--?xml version="1.0" encoding="utf-8"?-->
<!-- Generator: Adobe Illustrator 15.1.0, SVG Export Plug-In . SVG Version: 6.00 Build 0)  -->

<svg version="1.1" id="_x32_" xmlns="http://www.w3.org/2000/svg" xmlns:xlink="http://www.w3.org/1999/xlink" x="0px" y="0px" width="512px" height="512px" viewBox="0 0 512 512" style="width: 256px; height: 256px; opacity: 1;" xml:space="preserve">
<style type="text/css">

	.st0{fill:#4B4B4B;}

</style>
<g>
	<path class="st0" d="M340.047,479.906l-16.25-196.938l32.016-25.156v-16.875h-15.016v-52.656h10.391
		c8.328,0,15.094-6.781,15.094-15.109s-6.766-15.109-15.094-15.109h-22.203v-24.859c0-34.781-24.344-63.828-56.938-71.156v-46
		C272.047,7.188,264.859,0,256,0c-8.875,0-16.047,7.188-16.047,16.047v46c-32.594,7.328-56.938,36.391-56.938,71.156v24.859h-22.188
		c-8.328,0-15.109,6.781-15.109,15.109s6.781,15.109,15.109,15.109h10.375v52.656h-15.016v16.875l32.016,25.156l-16.25,196.938
		h-44.344V512h41.703h173.391h41.688v-32.094H340.047z M256,412.969c8.875,0,16.047,7.188,16.047,16.031v20.063h-32.094V429
		C239.953,420.156,247.141,412.969,256,412.969z M239.953,360.813V340.75c0-8.875,7.188-16.063,16.047-16.063
		c8.875,0,16.047,7.188,16.047,16.063v20.063H239.953z M302.406,188.281h22.328v52.656h-22.328V188.281z M286.359,240.938h-22.328
		v-52.656h22.328V240.938z M239.953,124.078c0-8.859,7.188-16.047,16.047-16.047c8.875,0,16.047,7.188,16.047,16.047v20.063h-32.094
		V124.078z M225.641,188.281h22.328v52.656h-22.328V188.281z M187.25,240.938v-52.656h22.344v52.656H187.25z"></path>
</g>
</svg>
