<!--?xml version="1.0" encoding="utf-8"?-->
<!-- Generator: Adobe Illustrator 18.1.1, SVG Export Plug-In . SVG Version: 6.00 Build 0)  -->

<svg version="1.1" id="_x32_" xmlns="http://www.w3.org/2000/svg" xmlns:xlink="http://www.w3.org/1999/xlink" x="0px" y="0px" viewBox="0 0 512 512" style="width: 256px; height: 256px; opacity: 1;" xml:space="preserve">
<style type="text/css">
	.st0{fill:#4B4B4B;}
</style>
<g>
	<path class="st0" d="M405.295,255.128l-80.064-18.658l81.293-6.766l64.205-64.92l24.038-104.024l-17.533-3.906l-28.781,95.496
		l-53.08,52.434l-85.949,7.15l74.057-30.577l29.922-84.981L395.443,0l-17.681,3.078l10.723,90.684l-23.863,67.744l-60.613,25.023
		c-2.346-13.985-4.987-22.738-4.987-22.738l5.38-24.806l-16.139-32.46l-21.508,3.828l10.758,20.995l-5.388,24.804h-32.268
		l-5.371-24.804l10.75-20.995l-21.509-3.828l-16.138,32.46l5.379,24.806c0,0-2.642,8.753-4.978,22.738l-60.621-25.023
		l-23.864-67.744L134.23,3.078L116.548,0l-17.97,96.378l29.932,84.981l74.066,30.577l-85.958-7.15L63.53,152.352L34.758,56.855
		l-17.525,3.906l24.029,104.024l64.205,64.92l81.303,6.766l-80.073,18.658L46.86,320.912L33.197,425.614l17.647,3.235v-0.008
		l18.606-95.732l49.54-54.475l58.755-13.688l-58.25,38.092l-15.58,130.555L148.032,512l15.685-9.181l-34.796-74.301l13.121-109.987
		l67.597-44.186c0.47,1.962,0.977,3.932,1.526,5.902c-69.916,66.82-57.36,194.707,44.823,194.707
		c102.201,0,114.756-127.886,44.832-194.707c0.549-1.97,1.063-3.941,1.534-5.902l67.597,44.186l13.112,109.987l-34.788,74.301
		L363.968,512l44.109-78.408l-15.589-130.555l-58.242-38.092l58.747,13.688l49.54,54.475l18.606,95.732v0.008l17.656-3.235
		l-13.672-104.703L405.295,255.128z" style="fill: rgb(0, 0, 0);"></path>
</g>
</svg>
