<?xml version="1.0" encoding="UTF-8"?>
<svg width="56px" height="56px" viewBox="0 0 56 56" version="1.1" xmlns="http://www.w3.org/2000/svg" xmlns:xlink="http://www.w3.org/1999/xlink">
    <!-- Generator: Sketch 41.2 (35397) - http://www.bohemiancoding.com/sketch -->
    <title>server-critical</title>
    <desc>Created with Sketch.</desc>
    <defs/>
    <g id="1.-Servers" stroke="none" stroke-width="1" fill="none" fill-rule="evenodd">
        <g id="server-critical">
            <g id="Group">
                <rect id="container" x="0" y="0" width="56" height="56"/>
                <path d="M13,49.0063855 C13,49.5525942 13.4479211,50 13.9992106,50 L43.0007894,50 C43.5491666,50 44,49.5508151 44,49.0063855 L44,7.99361448 C44,7.44740584 43.5520789,7 43.0007894,7 L13.9992106,7 C13.4508334,7 13,7.44918492 13,7.99361448 L13,49.0063855 Z M13.9992106,5 L43.0007894,5 C44.6572077,5 46,6.34339372 46,7.99361448 L46,49.0063855 C46,50.6597131 44.6494043,52 43.0007894,52 L13.9992106,52 C12.3427923,52 11,50.6566063 11,49.0063855 L11,7.99361448 C11,6.34028685 12.3505957,5 13.9992106,5 Z M21,13.5 C21,12.6715729 20.3284271,12 19.5,12 C18.6715729,12 18,12.6715729 18,13.5 C18,14.3284271 18.6715729,15 19.5,15 C20.3284271,15 21,14.3284271 21,13.5 Z M16,13.5 C16,11.5670034 17.5670034,10 19.5,10 C21.4329966,10 23,11.5670034 23,13.5 C23,15.4329966 21.4329966,17 19.5,17 C17.5670034,17 16,15.4329966 16,13.5 Z M21,28.5 C21,27.6715729 20.3284271,27 19.5,27 C18.6715729,27 18,27.6715729 18,28.5 C18,29.3284271 18.6715729,30 19.5,30 C20.3284271,30 21,29.3284271 21,28.5 Z M16,28.5 C16,26.5670034 17.5670034,25 19.5,25 C21.4329966,25 23,26.5670034 23,28.5 C23,30.4329966 21.4329966,32 19.5,32 C17.5670034,32 16,30.4329966 16,28.5 Z M21,43.5 C21,42.6715729 20.3284271,42 19.5,42 C18.6715729,42 18,42.6715729 18,43.5 C18,44.3284271 18.6715729,45 19.5,45 C20.3284271,45 21,44.3284271 21,43.5 Z M16,43.5 C16,41.5670034 17.5670034,40 19.5,40 C21.4329966,40 23,41.5670034 23,43.5 C23,45.4329966 21.4329966,47 19.5,47 C17.5670034,47 16,45.4329966 16,43.5 Z M11,20 L46,20 L46,22 L11,22 L11,20 Z M11,35 L46,35 L46,37 L11,37 L11,35 Z" id="Combined-Shape" fill="#B8B8B8"/>
                <circle id="Oval-2" fill="#FFFFFF" cx="44" cy="12" r="12"/>
                <path d="M44,0 C37.3727273,0 32,5.37245455 32,12 C32,18.6275455 37.3727273,24 44,24 C50.6272727,24 56,18.6275455 56,12 C56,5.37245455 50.6272727,0 44,0 L44,0 Z M44,21.8181818 C38.5776364,21.8181818 34.1818182,17.4223636 34.1818182,12 C34.1818182,6.57763636 38.5776364,2.18181818 44,2.18181818 C49.4223636,2.18181818 53.8181818,6.57763636 53.8181818,12 C53.8181818,17.4223636 49.4223636,21.8181818 44,21.8181818 L44,21.8181818 Z M47.8571818,8.14336364 C47.4311818,7.71736364 46.7398182,7.71736364 46.3140909,8.14336364 L44,10.4571818 L41.6861818,8.14363636 C41.2601818,7.71763636 40.5690909,7.71763636 40.1430909,8.14363636 C39.7170909,8.56963636 39.7170909,9.26072727 40.1430909,9.68618182 L42.4571818,12 L40.1430909,14.3138182 C39.7170909,14.7398182 39.7170909,15.4309091 40.1430909,15.8563636 C40.5690909,16.2823636 41.2601818,16.2823636 41.6861818,15.8563636 L44,13.5428182 L46.3138182,15.8563636 C46.7398182,16.2823636 47.4309091,16.2823636 47.8569091,15.8563636 C48.2829091,15.4303636 48.2829091,14.739 47.8569091,14.3138182 L45.5428182,12 L47.8569091,9.68618182 C48.2829091,9.25990909 48.2829091,8.56909091 47.8571818,8.14336364 L47.8571818,8.14336364 Z" id="shape" fill="#DC3246"/>
            </g>
        </g>
    </g>
</svg>