<?xml version="1.0" encoding="UTF-8" standalone="no"?>
<!DOCTYPE svg PUBLIC "-//W3C//DTD SVG 1.1//EN"
 "http://www.w3.org/Graphics/SVG/1.1/DTD/svg11.dtd">
<!-- Generated by graphviz version 2.43.0 (0)
 -->
<!-- Title: cve_mpd Pages: 1 -->
<svg width="1738pt" height="775pt"
 viewBox="0.00 0.00 1738.00 775.00" xmlns="http://www.w3.org/2000/svg" xmlns:xlink="http://www.w3.org/1999/xlink">
<g id="graph0" class="graph" transform="scale(1 1) rotate(0) translate(4 771)">
<title>cve_mpd</title>
<polygon fill="white" stroke="transparent" points="-4,4 -4,-771 1734,-771 1734,4 -4,4"/>
<text text-anchor="middle" x="865" y="-754.2" font-family="Helvetica,sans-Serif" font-size="11.00">PmaControl CVE &#45; MPD</text>
<g id="clust1" class="cluster">
<title>cluster_sources</title>
<path fill="white" stroke="#cbd5e1" d="M20,-8C20,-8 628,-8 628,-8 634,-8 640,-14 640,-20 640,-20 640,-250 640,-250 640,-256 634,-262 628,-262 628,-262 20,-262 20,-262 14,-262 8,-256 8,-250 8,-250 8,-20 8,-20 8,-14 14,-8 20,-8"/>
<text text-anchor="middle" x="324" y="-249.2" font-family="Helvetica,sans-Serif" font-size="11.00">Raw source feeds</text>
</g>
<g id="clust2" class="cluster">
<title>cluster_catalog</title>
<path fill="white" stroke="#bae6fd" d="M740,-121C740,-121 1159,-121 1159,-121 1165,-121 1171,-127 1171,-133 1171,-133 1171,-387 1171,-387 1171,-393 1165,-399 1159,-399 1159,-399 740,-399 740,-399 734,-399 728,-393 728,-387 728,-387 728,-133 728,-133 728,-127 734,-121 740,-121"/>
<text text-anchor="middle" x="949.5" y="-386.2" font-family="Helvetica,sans-Serif" font-size="11.00">Normalized CVE catalog</text>
</g>
<g id="clust3" class="cluster">
<title>cluster_runtime</title>
<path fill="white" stroke="#bbf7d0" d="M998,-407C998,-407 1427,-407 1427,-407 1433,-407 1439,-413 1439,-419 1439,-419 1439,-649 1439,-649 1439,-655 1433,-661 1427,-661 1427,-661 998,-661 998,-661 992,-661 986,-655 986,-649 986,-649 986,-419 986,-419 986,-413 992,-407 998,-407"/>
<text text-anchor="middle" x="1212.5" y="-648.2" font-family="Helvetica,sans-Serif" font-size="11.00">Runtime matching and UI filters</text>
</g>
<g id="clust4" class="cluster">
<title>cluster_ui</title>
<path fill="white" stroke="#fde68a" d="M1538,-317C1538,-317 1710,-317 1710,-317 1716,-317 1722,-323 1722,-329 1722,-329 1722,-465 1722,-465 1722,-471 1716,-477 1710,-477 1710,-477 1538,-477 1538,-477 1532,-477 1526,-471 1526,-465 1526,-465 1526,-329 1526,-329 1526,-323 1532,-317 1538,-317"/>
<text text-anchor="middle" x="1624" y="-464.2" font-family="Helvetica,sans-Serif" font-size="11.00">Application surfaces</text>
</g>
<!-- cve_feed_source -->
<g id="node1" class="node">
<title>cve_feed_source</title>
<polygon fill="#0f172a" stroke="transparent" points="24,-105 24,-128 158,-128 158,-105 24,-105"/>
<polygon fill="none" stroke="black" points="24,-105 24,-128 158,-128 158,-105 24,-105"/>
<text text-anchor="start" x="44" y="-115" font-family="Helvetica,sans-Serif" font-weight="bold" font-size="10.00" fill="white">cve_feed_source</text>
<polygon fill="none" stroke="black" points="24,-82 24,-105 158,-105 158,-82 24,-82"/>
<text text-anchor="start" x="30" y="-91" font-family="Helvetica,sans-Serif" font-size="10.00">PK id</text>
<polygon fill="none" stroke="black" points="24,-59 24,-82 158,-82 158,-59 24,-59"/>
<text text-anchor="start" x="30" y="-68" font-family="Helvetica,sans-Serif" font-size="10.00">code, name, source_kind</text>
<polygon fill="none" stroke="black" points="24,-36 24,-59 158,-59 158,-36 24,-36"/>
<text text-anchor="start" x="30" y="-45" font-family="Helvetica,sans-Serif" font-size="10.00">url_base, cadence_hours</text>
</g>
<!-- cve_feed_source_product -->
<g id="node2" class="node">
<title>cve_feed_source_product</title>
<polygon fill="#0f172a" stroke="transparent" points="226.5,-89 226.5,-112 381.5,-112 381.5,-89 226.5,-89"/>
<polygon fill="none" stroke="black" points="226.5,-89 226.5,-112 381.5,-112 381.5,-89 226.5,-89"/>
<text text-anchor="start" x="232.5" y="-99" font-family="Helvetica,sans-Serif" font-weight="bold" font-size="10.00" fill="white">cve_feed_source_product</text>
<polygon fill="none" stroke="black" points="226.5,-66 226.5,-89 381.5,-89 381.5,-66 226.5,-66"/>
<text text-anchor="start" x="232.5" y="-75" font-family="Helvetica,sans-Serif" font-size="10.00">PK id</text>
<polygon fill="none" stroke="black" points="226.5,-43 226.5,-66 381.5,-66 381.5,-43 226.5,-43"/>
<text text-anchor="start" x="232.5" y="-52" font-family="Helvetica,sans-Serif" font-size="10.00">FK id_cve_feed_source</text>
<polygon fill="none" stroke="black" points="226.5,-20 226.5,-43 381.5,-43 381.5,-20 226.5,-20"/>
<text text-anchor="start" x="232.5" y="-29" font-family="Helvetica,sans-Serif" font-size="10.00">product_code, cpe_vendor</text>
</g>
<!-- cve_feed_source&#45;&gt;cve_feed_source_product -->
<g id="edge1" class="edge">
<title>cve_feed_source&#45;&gt;cve_feed_source_product</title>
<path fill="none" stroke="#475569" d="M166.21,-76.36C180.56,-75.27 195.74,-74.11 210.57,-72.99"/>
<polygon fill="#475569" stroke="#475569" points="211.02,-75.41 217.82,-72.44 210.65,-70.52 211.02,-75.41"/>
<text text-anchor="middle" x="192" y="-77.8" font-family="Helvetica,sans-Serif" font-size="9.00">1:N</text>
</g>
<!-- cve_feed_run -->
<g id="node3" class="node">
<title>cve_feed_run</title>
<polygon fill="#0f172a" stroke="transparent" points="234.5,-207 234.5,-230 373.5,-230 373.5,-207 234.5,-207"/>
<polygon fill="none" stroke="black" points="234.5,-207 234.5,-230 373.5,-230 373.5,-207 234.5,-207"/>
<text text-anchor="start" x="266.5" y="-217" font-family="Helvetica,sans-Serif" font-weight="bold" font-size="10.00" fill="white">cve_feed_run</text>
<polygon fill="none" stroke="black" points="234.5,-184 234.5,-207 373.5,-207 373.5,-184 234.5,-184"/>
<text text-anchor="start" x="240.5" y="-193" font-family="Helvetica,sans-Serif" font-size="10.00">PK id</text>
<polygon fill="none" stroke="black" points="234.5,-161 234.5,-184 373.5,-184 373.5,-161 234.5,-161"/>
<text text-anchor="start" x="240.5" y="-170" font-family="Helvetica,sans-Serif" font-size="10.00">FK id_cve_feed_source</text>
<polygon fill="none" stroke="black" points="234.5,-138 234.5,-161 373.5,-161 373.5,-138 234.5,-138"/>
<text text-anchor="start" x="240.5" y="-147" font-family="Helvetica,sans-Serif" font-size="10.00">run_mode, status, cursors</text>
</g>
<!-- cve_feed_source&#45;&gt;cve_feed_run -->
<g id="edge2" class="edge">
<title>cve_feed_source&#45;&gt;cve_feed_run</title>
<path fill="none" stroke="#475569" d="M166.21,-117.96C183.4,-126.29 201.79,-135.2 219.33,-143.7"/>
<polygon fill="#475569" stroke="#475569" points="218.38,-145.96 225.75,-146.81 220.52,-141.55 218.38,-145.96"/>
<text text-anchor="middle" x="192" y="-135.8" font-family="Helvetica,sans-Serif" font-size="9.00">1:N</text>
</g>
<!-- source_tables -->
<g id="node4" class="node">
<title>source_tables</title>
<polygon fill="#334155" stroke="transparent" points="506,-207 506,-230 624,-230 624,-207 506,-207"/>
<polygon fill="none" stroke="black" points="506,-207 506,-230 624,-230 624,-207 506,-207"/>
<text text-anchor="start" x="528.5" y="-217" font-family="Helvetica,sans-Serif" font-weight="bold" font-size="10.00" fill="white">cve_source_*</text>
<polygon fill="none" stroke="black" points="506,-184 506,-207 624,-207 624,-184 506,-184"/>
<text text-anchor="start" x="512" y="-193" font-family="Helvetica,sans-Serif" font-size="10.00">nvd, osv, ghsa</text>
<polygon fill="none" stroke="black" points="506,-161 506,-184 624,-184 624,-161 506,-161"/>
<text text-anchor="start" x="512" y="-170" font-family="Helvetica,sans-Serif" font-size="10.00">cisa_kev, oracle_cpu</text>
<polygon fill="none" stroke="black" points="506,-138 506,-161 624,-161 624,-138 506,-138"/>
<text text-anchor="start" x="512" y="-147" font-family="Helvetica,sans-Serif" font-size="10.00">mariadb_security</text>
<polygon fill="none" stroke="black" points="506,-115 506,-138 624,-138 624,-115 506,-115"/>
<text text-anchor="start" x="512" y="-124" font-family="Helvetica,sans-Serif" font-size="10.00">percona_advisory</text>
<polygon fill="none" stroke="black" points="506,-92 506,-115 624,-115 624,-92 506,-92"/>
<text text-anchor="start" x="512" y="-101" font-family="Helvetica,sans-Serif" font-size="10.00">component_ghsa</text>
<polygon fill="none" stroke="black" points="506,-69 506,-92 624,-92 624,-69 506,-69"/>
<text text-anchor="start" x="512" y="-78" font-family="Helvetica,sans-Serif" font-size="10.00">aws_security_bulletin</text>
</g>
<!-- cve_feed_run&#45;&gt;source_tables -->
<g id="edge3" class="edge">
<title>cve_feed_run&#45;&gt;source_tables</title>
<path fill="none" stroke="#64748b" d="M381.31,-173.94C415.91,-169.4 456.58,-164.07 490.75,-159.6"/>
<polygon fill="#64748b" stroke="#64748b" points="491.31,-161.99 497.94,-158.66 490.68,-157.14 491.31,-161.99"/>
<text text-anchor="middle" x="443.5" y="-173.8" font-family="Helvetica,sans-Serif" font-size="9.00">id_cve_feed_run</text>
</g>
<!-- cve_catalog -->
<g id="node6" class="node">
<title>cve_catalog</title>
<polygon fill="#0369a1" stroke="transparent" points="744.5,-343 744.5,-366 861.5,-366 861.5,-343 744.5,-343"/>
<polygon fill="none" stroke="black" points="744.5,-343 744.5,-366 861.5,-366 861.5,-343 744.5,-343"/>
<text text-anchor="start" x="769.5" y="-353" font-family="Helvetica,sans-Serif" font-weight="bold" font-size="10.00" fill="white">cve_catalog</text>
<polygon fill="none" stroke="black" points="744.5,-320 744.5,-343 861.5,-343 861.5,-320 744.5,-320"/>
<text text-anchor="start" x="750.5" y="-329" font-family="Helvetica,sans-Serif" font-size="10.00">PK id</text>
<polygon fill="none" stroke="black" points="744.5,-297 744.5,-320 861.5,-320 861.5,-297 744.5,-297"/>
<text text-anchor="start" x="750.5" y="-306" font-family="Helvetica,sans-Serif" font-size="10.00">UNQ cve_id</text>
<polygon fill="none" stroke="black" points="744.5,-274 744.5,-297 861.5,-297 861.5,-274 744.5,-274"/>
<text text-anchor="start" x="750.5" y="-283" font-family="Helvetica,sans-Serif" font-size="10.00">severity, CVSS, dates</text>
<polygon fill="none" stroke="black" points="744.5,-251 744.5,-274 861.5,-274 861.5,-251 744.5,-251"/>
<text text-anchor="start" x="750.5" y="-260" font-family="Helvetica,sans-Serif" font-size="10.00">KEV overlay flags</text>
</g>
<!-- source_tables&#45;&gt;cve_catalog -->
<g id="edge4" class="edge">
<title>source_tables&#45;&gt;cve_catalog</title>
<path fill="none" stroke="#0284c7" stroke-dasharray="5,2" d="M632.23,-194.71C662.58,-215.21 698.63,-239.54 729.64,-260.48"/>
<polygon fill="#0284c7" stroke="#0284c7" points="728.6,-262.74 735.77,-264.62 731.34,-258.67 728.6,-262.74"/>
<text text-anchor="middle" x="684" y="-251.8" font-family="Helvetica,sans-Serif" font-size="9.00">catalog rebuild</text>
</g>
<!-- cve_product_affected_version -->
<g id="node7" class="node">
<title>cve_product_affected_version</title>
<polygon fill="#0369a1" stroke="transparent" points="974.5,-257 974.5,-280 1155.5,-280 1155.5,-257 974.5,-257"/>
<polygon fill="none" stroke="black" points="974.5,-257 974.5,-280 1155.5,-280 1155.5,-257 974.5,-257"/>
<text text-anchor="start" x="980.5" y="-267" font-family="Helvetica,sans-Serif" font-weight="bold" font-size="10.00" fill="white">cve_product_affected_version</text>
<polygon fill="none" stroke="black" points="974.5,-234 974.5,-257 1155.5,-257 1155.5,-234 974.5,-234"/>
<text text-anchor="start" x="980.5" y="-243" font-family="Helvetica,sans-Serif" font-size="10.00">PK id</text>
<polygon fill="none" stroke="black" points="974.5,-211 974.5,-234 1155.5,-234 1155.5,-211 974.5,-211"/>
<text text-anchor="start" x="980.5" y="-220" font-family="Helvetica,sans-Serif" font-size="10.00">FK id_cve_catalog</text>
<polygon fill="none" stroke="black" points="974.5,-188 974.5,-211 1155.5,-211 1155.5,-188 974.5,-188"/>
<text text-anchor="start" x="980.5" y="-197" font-family="Helvetica,sans-Serif" font-size="10.00">FK id_cve_product</text>
<polygon fill="none" stroke="black" points="974.5,-165 974.5,-188 1155.5,-188 1155.5,-165 974.5,-165"/>
<text text-anchor="start" x="980.5" y="-174" font-family="Helvetica,sans-Serif" font-size="10.00">version_start/end</text>
<polygon fill="none" stroke="black" points="974.5,-142 974.5,-165 1155.5,-165 1155.5,-142 974.5,-142"/>
<text text-anchor="start" x="980.5" y="-151" font-family="Helvetica,sans-Serif" font-size="10.00">source_code, match_method</text>
</g>
<!-- source_tables&#45;&gt;cve_product_affected_version -->
<g id="edge5" class="edge">
<title>source_tables&#45;&gt;cve_product_affected_version</title>
<path fill="none" stroke="#0284c7" stroke-dasharray="5,2" d="M632.07,-127.38C693.97,-109.45 788.72,-90.4 869,-110 899.84,-117.53 931.24,-130.88 959.56,-145.46"/>
<polygon fill="#0284c7" stroke="#0284c7" points="958.59,-147.72 965.93,-148.79 960.86,-143.37 958.59,-147.72"/>
<text text-anchor="middle" x="802.5" y="-112.8" font-family="Helvetica,sans-Serif" font-size="9.00">version ranges</text>
</g>
<!-- cve_product -->
<g id="node5" class="node">
<title>cve_product</title>
<polygon fill="#0369a1" stroke="transparent" points="751.5,-202 751.5,-225 854.5,-225 854.5,-202 751.5,-202"/>
<polygon fill="none" stroke="black" points="751.5,-202 751.5,-225 854.5,-225 854.5,-202 751.5,-202"/>
<text text-anchor="start" x="768" y="-212" font-family="Helvetica,sans-Serif" font-weight="bold" font-size="10.00" fill="white">cve_product</text>
<polygon fill="none" stroke="black" points="751.5,-179 751.5,-202 854.5,-202 854.5,-179 751.5,-179"/>
<text text-anchor="start" x="757.5" y="-188" font-family="Helvetica,sans-Serif" font-size="10.00">PK id</text>
<polygon fill="none" stroke="black" points="751.5,-156 751.5,-179 854.5,-179 854.5,-156 751.5,-156"/>
<text text-anchor="start" x="757.5" y="-165" font-family="Helvetica,sans-Serif" font-size="10.00">UNQ product_code</text>
<polygon fill="none" stroke="black" points="751.5,-133 751.5,-156 854.5,-156 854.5,-133 751.5,-133"/>
<text text-anchor="start" x="757.5" y="-142" font-family="Helvetica,sans-Serif" font-size="10.00">family, icon, color</text>
</g>
<!-- cve_product&#45;&gt;cve_product_affected_version -->
<g id="edge7" class="edge">
<title>cve_product&#45;&gt;cve_product_affected_version</title>
<path fill="none" stroke="#475569" d="M862.17,-186.22C890.7,-189.73 925.86,-194.06 958.77,-198.11"/>
<polygon fill="#475569" stroke="#475569" points="958.51,-200.55 965.76,-198.97 959.11,-195.68 958.51,-200.55"/>
<text text-anchor="middle" x="917.5" y="-198.8" font-family="Helvetica,sans-Serif" font-size="9.00">1:N</text>
</g>
<!-- cve_server_cache -->
<g id="node9" class="node">
<title>cve_server_cache</title>
<polygon fill="#166534" stroke="transparent" points="1311,-606 1311,-629 1423,-629 1423,-606 1311,-606"/>
<polygon fill="none" stroke="black" points="1311,-606 1311,-629 1423,-629 1423,-606 1311,-606"/>
<text text-anchor="start" x="1317" y="-616" font-family="Helvetica,sans-Serif" font-weight="bold" font-size="10.00" fill="white">cve_server_cache</text>
<polygon fill="none" stroke="black" points="1311,-583 1311,-606 1423,-606 1423,-583 1311,-583"/>
<text text-anchor="start" x="1317" y="-592" font-family="Helvetica,sans-Serif" font-size="10.00">PK id</text>
<polygon fill="none" stroke="black" points="1311,-560 1311,-583 1423,-583 1423,-560 1311,-560"/>
<text text-anchor="start" x="1317" y="-569" font-family="Helvetica,sans-Serif" font-size="10.00">id_mysql_server</text>
<polygon fill="none" stroke="black" points="1311,-537 1311,-560 1423,-560 1423,-537 1311,-537"/>
<text text-anchor="start" x="1317" y="-546" font-family="Helvetica,sans-Serif" font-size="10.00">FK id_cve_catalog</text>
<polygon fill="none" stroke="black" points="1311,-514 1311,-537 1423,-537 1423,-514 1311,-514"/>
<text text-anchor="start" x="1317" y="-523" font-family="Helvetica,sans-Serif" font-size="10.00">FK id_cve_product</text>
<polygon fill="none" stroke="black" points="1311,-491 1311,-514 1423,-514 1423,-491 1311,-491"/>
<text text-anchor="start" x="1317" y="-500" font-family="Helvetica,sans-Serif" font-size="10.00">server_version</text>
</g>
<!-- cve_product&#45;&gt;cve_server_cache -->
<g id="edge10" class="edge">
<title>cve_product&#45;&gt;cve_server_cache</title>
<path fill="none" stroke="#475569" d="M862.18,-227.48C864.7,-230.87 867.01,-234.38 869,-238 891.85,-279.47 863.97,-301.63 887,-343 904.61,-374.64 931.93,-364.55 948,-397 972.22,-445.92 926.01,-604.84 966,-642 999.37,-673.01 1126.34,-651.01 1171,-642 1214.21,-633.28 1259.77,-614.72 1295.97,-597.45"/>
<polygon fill="#475569" stroke="#475569" points="1297.38,-599.49 1302.62,-594.24 1295.25,-595.08 1297.38,-599.49"/>
<text text-anchor="middle" x="1064.5" y="-660.8" font-family="Helvetica,sans-Serif" font-size="9.00">1:N</text>
</g>
<!-- cve_ui -->
<g id="node11" class="node">
<title>cve_ui</title>
<polygon fill="#92400e" stroke="transparent" points="1542,-421 1542,-444 1706,-444 1706,-421 1542,-421"/>
<polygon fill="none" stroke="black" points="1542,-421 1542,-444 1706,-444 1706,-421 1542,-421"/>
<text text-anchor="start" x="1605" y="-431" font-family="Helvetica,sans-Serif" font-weight="bold" font-size="10.00" fill="white">CVE UI</text>
<polygon fill="none" stroke="black" points="1542,-398 1542,-421 1706,-421 1706,-398 1542,-398"/>
<text text-anchor="start" x="1548" y="-407" font-family="Helvetica,sans-Serif" font-size="10.00">Plugin &gt; cve/index</text>
<polygon fill="none" stroke="black" points="1542,-375 1542,-398 1706,-398 1706,-375 1542,-375"/>
<text text-anchor="start" x="1548" y="-384" font-family="Helvetica,sans-Serif" font-size="10.00">SuperAdmin &gt; cve/exclusions</text>
<polygon fill="none" stroke="black" points="1542,-352 1542,-375 1706,-375 1706,-352 1542,-352"/>
<text text-anchor="start" x="1548" y="-361" font-family="Helvetica,sans-Serif" font-size="10.00">server/main hover</text>
<polygon fill="none" stroke="black" points="1542,-329 1542,-352 1706,-352 1706,-329 1542,-329"/>
<text text-anchor="start" x="1548" y="-338" font-family="Helvetica,sans-Serif" font-size="10.00">home/index + MysqlServer tab</text>
</g>
<!-- cve_product&#45;&gt;cve_ui -->
<g id="edge12" class="edge">
<title>cve_product&#45;&gt;cve_ui</title>
<path fill="none" stroke="#475569" d="M862.13,-228.6C864.59,-231.66 866.9,-234.8 869,-238 882.86,-259.17 867.47,-275.92 887,-292 935.55,-331.97 1338.14,-366.23 1526.5,-380.24"/>
<polygon fill="#475569" stroke="#475569" points="1526.5,-382.7 1533.66,-380.77 1526.86,-377.81 1526.5,-382.7"/>
<text text-anchor="middle" x="1233" y="-361.8" font-family="Helvetica,sans-Serif" font-size="9.00">filters/tags</text>
</g>
<!-- cve_catalog&#45;&gt;cve_product_affected_version -->
<g id="edge6" class="edge">
<title>cve_catalog&#45;&gt;cve_product_affected_version</title>
<path fill="none" stroke="#475569" d="M869.11,-284.27C896.38,-273.99 928.71,-261.8 959.1,-250.35"/>
<polygon fill="#475569" stroke="#475569" points="960.27,-252.53 965.96,-247.77 958.54,-247.94 960.27,-252.53"/>
<text text-anchor="middle" x="917.5" y="-280.8" font-family="Helvetica,sans-Serif" font-size="9.00">1:N</text>
</g>
<!-- cve_catalog&#45;&gt;cve_server_cache -->
<g id="edge9" class="edge">
<title>cve_catalog&#45;&gt;cve_server_cache</title>
<path fill="none" stroke="#475569" d="M809.89,-370.56C822.6,-457.48 859.74,-613.31 966,-683 1084.56,-760.75 1160.19,-750.25 1285,-683 1303.61,-672.98 1318.64,-656.6 1330.47,-639.02"/>
<polygon fill="#475569" stroke="#475569" points="1332.61,-640.23 1334.36,-633.02 1328.5,-637.56 1332.61,-640.23"/>
<text text-anchor="middle" x="1064.5" y="-739.8" font-family="Helvetica,sans-Serif" font-size="9.00">1:N</text>
</g>
<!-- cve_exclusion -->
<g id="node10" class="node">
<title>cve_exclusion</title>
<polygon fill="#991b1b" stroke="transparent" points="1011.5,-488 1011.5,-511 1117.5,-511 1117.5,-488 1011.5,-488"/>
<polygon fill="none" stroke="black" points="1011.5,-488 1011.5,-511 1117.5,-511 1117.5,-488 1011.5,-488"/>
<text text-anchor="start" x="1025" y="-498" font-family="Helvetica,sans-Serif" font-weight="bold" font-size="10.00" fill="white">cve_exclusion</text>
<polygon fill="none" stroke="black" points="1011.5,-465 1011.5,-488 1117.5,-488 1117.5,-465 1011.5,-465"/>
<text text-anchor="start" x="1017.5" y="-474" font-family="Helvetica,sans-Serif" font-size="10.00">PK id</text>
<polygon fill="none" stroke="black" points="1011.5,-442 1011.5,-465 1117.5,-465 1117.5,-442 1011.5,-442"/>
<text text-anchor="start" x="1017.5" y="-451" font-family="Helvetica,sans-Serif" font-size="10.00">UNQ cve_id</text>
<polygon fill="none" stroke="black" points="1011.5,-419 1011.5,-442 1117.5,-442 1117.5,-419 1011.5,-419"/>
<text text-anchor="start" x="1017.5" y="-428" font-family="Helvetica,sans-Serif" font-size="10.00">is_disabled, reason</text>
</g>
<!-- cve_catalog&#45;&gt;cve_exclusion -->
<g id="edge11" class="edge">
<title>cve_catalog&#45;&gt;cve_exclusion</title>
<path fill="none" stroke="#991b1b" stroke-dasharray="5,2" d="M851.83,-370.81C862.54,-381.9 874.46,-392.59 887,-401 920.12,-423.21 961.89,-438.81 996.49,-449.05"/>
<polygon fill="#991b1b" stroke="#991b1b" points="995.9,-451.43 1003.3,-451.02 997.26,-446.72 995.9,-451.43"/>
<text text-anchor="middle" x="917.5" y="-433.8" font-family="Helvetica,sans-Serif" font-size="9.00">logical cve_id</text>
</g>
<!-- cve_catalog&#45;&gt;cve_ui -->
<g id="edge13" class="edge">
<title>cve_catalog&#45;&gt;cve_ui</title>
<path fill="none" stroke="#475569" d="M869.41,-338.11C875.28,-340.01 881.2,-341.68 887,-343 1111.95,-394.06 1384.91,-395.04 1526.82,-391.14"/>
<polygon fill="#475569" stroke="#475569" points="1526.96,-393.59 1533.89,-390.94 1526.82,-388.69 1526.96,-393.59"/>
<text text-anchor="middle" x="1233" y="-391.8" font-family="Helvetica,sans-Serif" font-size="9.00">CVE details</text>
</g>
<!-- cve_product_affected_version&#45;&gt;cve_ui -->
<g id="edge14" class="edge">
<title>cve_product_affected_version&#45;&gt;cve_ui</title>
<path fill="none" stroke="#475569" d="M1163.2,-223.05C1256.7,-236.98 1400.22,-264.73 1516,-315 1520.98,-317.16 1525.98,-319.56 1530.95,-322.13"/>
<polygon fill="#475569" stroke="#475569" points="1529.89,-324.35 1537.22,-325.48 1532.2,-320.02 1529.89,-324.35"/>
<text text-anchor="middle" x="1367" y="-288.8" font-family="Helvetica,sans-Serif" font-size="9.00">affected versions</text>
</g>
<!-- mysql_server -->
<g id="node8" class="node">
<title>mysql_server</title>
<polygon fill="#166534" stroke="transparent" points="1002.5,-606 1002.5,-629 1127.5,-629 1127.5,-606 1002.5,-606"/>
<polygon fill="none" stroke="black" points="1002.5,-606 1002.5,-629 1127.5,-629 1127.5,-606 1002.5,-606"/>
<text text-anchor="start" x="1026.5" y="-616" font-family="Helvetica,sans-Serif" font-weight="bold" font-size="10.00" fill="white">mysql_server</text>
<polygon fill="none" stroke="black" points="1002.5,-583 1002.5,-606 1127.5,-606 1127.5,-583 1002.5,-583"/>
<text text-anchor="start" x="1008.5" y="-592" font-family="Helvetica,sans-Serif" font-size="10.00">PK id</text>
<polygon fill="none" stroke="black" points="1002.5,-560 1002.5,-583 1127.5,-583 1127.5,-560 1002.5,-560"/>
<text text-anchor="start" x="1008.5" y="-569" font-family="Helvetica,sans-Serif" font-size="10.00">version via Extraction2</text>
<polygon fill="none" stroke="black" points="1002.5,-537 1002.5,-560 1127.5,-560 1127.5,-537 1002.5,-537"/>
<text text-anchor="start" x="1008.5" y="-546" font-family="Helvetica,sans-Serif" font-size="10.00">is_proxy, is_vip</text>
</g>
<!-- mysql_server&#45;&gt;cve_server_cache -->
<g id="edge8" class="edge">
<title>mysql_server&#45;&gt;cve_server_cache</title>
<path fill="none" stroke="#16a34a" stroke-dasharray="5,2" d="M1135.2,-577.67C1183.45,-573.97 1247.44,-569.07 1295.8,-565.37"/>
<polygon fill="#16a34a" stroke="#16a34a" points="1296.03,-567.81 1302.82,-564.84 1295.66,-562.93 1296.03,-567.81"/>
<text text-anchor="middle" x="1233" y="-575.8" font-family="Helvetica,sans-Serif" font-size="9.00">logical id_mysql_server</text>
</g>
<!-- cve_server_cache&#45;&gt;cve_ui -->
<g id="edge15" class="edge">
<title>cve_server_cache&#45;&gt;cve_ui</title>
<path fill="none" stroke="#475569" d="M1431.06,-517.48C1457.34,-499.74 1488.16,-478.9 1516,-460 1519.94,-457.33 1523.96,-454.6 1528.01,-451.84"/>
<polygon fill="#475569" stroke="#475569" points="1529.57,-453.74 1533.98,-447.78 1526.82,-449.69 1529.57,-453.74"/>
<text text-anchor="middle" x="1482.5" y="-505.8" font-family="Helvetica,sans-Serif" font-size="9.00">server impacts</text>
</g>
<!-- cve_exclusion&#45;&gt;cve_ui -->
<g id="edge16" class="edge">
<title>cve_exclusion&#45;&gt;cve_ui</title>
<path fill="none" stroke="#475569" d="M1125.69,-456.58C1221.94,-443.11 1411.35,-416.61 1526.62,-400.48"/>
<polygon fill="#475569" stroke="#475569" points="1527.17,-402.88 1533.76,-399.49 1526.49,-398.03 1527.17,-402.88"/>
<text text-anchor="middle" x="1367" y="-433.8" font-family="Helvetica,sans-Serif" font-size="9.00">hide false positives</text>
</g>
</g>
</svg>
