<?xml version="1.0" encoding="UTF-8" standalone="no"?>
<svg xmlns="http://www.w3.org/2000/svg" xmlns:xlink="http://www.w3.org/1999/xlink" width="32px" height="px" viewBox="0 0 32 32" version="1.1">
<defs>
<clipPath id="clip1">
  <path d="M 0 0 L 16 0 L 16 32 L 0 32 Z M 0 0 "/>
</clipPath>
<clipPath id="clip2">
  <path d="M 16 32 C 12.792969 31.996094 9.664062 30.886719 6.621094 28.679688 C -2.25 22.25 -1.976562 8.945312 7.148438 2.882812 C 10.023438 0.976562 12.972656 0.015625 16 0 "/>
</clipPath>
<clipPath id="clip3">
  <path d="M 5 5 L 26 5 L 26 27 L 5 27 Z M 5 5 "/>
</clipPath>
<clipPath id="clip4">
  <path d="M 25.75 16 C 26.136719 19.605469 23.914062 26.894531 15.898438 26.925781 C 13.820312 26.933594 11.769531 26.128906 9.742188 24.503906 C 4.277344 20.128906 4.449219 11.757812 10.089844 7.609375 C 12.007812 6.199219 13.941406 5.507812 15.898438 5.539062 C 20.667969 5.605469 22.882812 7.878906 24.34375 9.457031 "/>
</clipPath>
</defs>
<g id="surface1">
<g clip-path="url(#clip1)" clip-rule="nonzero">
<g clip-path="url(#clip2)" clip-rule="nonzero">
<path style="fill:none;stroke-width:106.67;stroke-linecap:butt;stroke-linejoin:miter;stroke:rgb(94.901961%,47.843137%,1.176471%);stroke-opacity:1;stroke-miterlimit:4;" d="M 320 640 C 255.859375 639.921875 193.28125 617.734375 132.421875 573.59375 C -45 445 -39.53125 178.90625 142.96875 57.65625 C 200.46875 19.53125 259.453125 0.3125 320 0 " transform="matrix(0.05,0,0,0.05,0,0)"/>
</g>
</g>
<path style=" stroke:none;fill-rule:nonzero;fill:rgb(94.901961%,47.843137%,1.176471%);fill-opacity:1;" d="M 32.082031 16.132812 C 32.082031 16.867188 31.484375 17.464844 30.75 17.464844 C 30.015625 17.464844 29.417969 16.867188 29.417969 16.132812 C 29.417969 15.398438 30.015625 14.800781 30.75 14.800781 C 31.484375 14.800781 32.082031 15.398438 32.082031 16.132812 Z M 32.082031 16.132812 "/>
<path style=" stroke:none;fill-rule:nonzero;fill:rgb(94.901961%,47.843137%,1.176471%);fill-opacity:1;" d="M 27.785156 26.484375 C 27.785156 27.21875 27.1875 27.816406 26.449219 27.816406 C 25.714844 27.816406 25.117188 27.21875 25.117188 26.484375 C 25.117188 25.746094 25.714844 25.148438 26.449219 25.148438 C 27.1875 25.148438 27.785156 25.746094 27.785156 26.484375 Z M 27.785156 26.484375 "/>
<path style=" stroke:none;fill-rule:nonzero;fill:rgb(94.901961%,47.843137%,1.176471%);fill-opacity:1;" d="M 23.035156 29.617188 C 23.035156 30.351562 22.4375 30.949219 21.699219 30.949219 C 20.964844 30.949219 20.367188 30.351562 20.367188 29.617188 C 20.367188 28.882812 20.964844 28.285156 21.699219 28.285156 C 22.4375 28.285156 23.035156 28.882812 23.035156 29.617188 Z M 23.035156 29.617188 "/>
<path style=" stroke:none;fill-rule:nonzero;fill:rgb(94.901961%,47.843137%,1.176471%);fill-opacity:1;" d="M 30.984375 21.734375 C 30.984375 22.46875 30.386719 23.066406 29.648438 23.066406 C 28.914062 23.066406 28.316406 22.46875 28.316406 21.734375 C 28.316406 20.996094 28.914062 20.398438 29.648438 20.398438 C 30.386719 20.398438 30.984375 20.996094 30.984375 21.734375 Z M 30.984375 21.734375 "/>
<path style=" stroke:none;fill-rule:nonzero;fill:rgb(94.901961%,47.843137%,1.176471%);fill-opacity:1;" d="M 30.964844 10.535156 C 30.964844 11.269531 30.367188 11.867188 29.632812 11.867188 C 28.898438 11.867188 28.300781 11.269531 28.300781 10.535156 C 28.300781 9.796875 28.898438 9.199219 29.632812 9.199219 C 30.367188 9.199219 30.964844 9.796875 30.964844 10.535156 Z M 30.964844 10.535156 "/>
<path style=" stroke:none;fill-rule:nonzero;fill:rgb(94.901961%,47.843137%,1.176471%);fill-opacity:1;" d="M 27.785156 5.832031 C 27.785156 6.570312 27.1875 7.167969 26.449219 7.167969 C 25.714844 7.167969 25.117188 6.570312 25.117188 5.832031 C 25.117188 5.097656 25.714844 4.5 26.449219 4.5 C 27.1875 4.5 27.785156 5.097656 27.785156 5.832031 Z M 27.785156 5.832031 "/>
<path style=" stroke:none;fill-rule:nonzero;fill:rgb(94.901961%,47.843137%,1.176471%);fill-opacity:1;" d="M 23 2.609375 C 23 3.34375 22.402344 3.941406 21.667969 3.941406 C 20.929688 3.941406 20.332031 3.34375 20.332031 2.609375 C 20.332031 1.871094 20.929688 1.273438 21.667969 1.273438 C 22.402344 1.273438 23 1.871094 23 2.609375 Z M 23 2.609375 "/>
<g clip-path="url(#clip3)" clip-rule="nonzero">
<g clip-path="url(#clip4)" clip-rule="nonzero">
<path style="fill:none;stroke-width:106.67;stroke-linecap:butt;stroke-linejoin:miter;stroke:rgb(94.901961%,47.843137%,1.176471%);stroke-opacity:1;stroke-miterlimit:4;" d="M 515 320 C 522.734375 392.109375 478.28125 537.890625 317.96875 538.515625 C 276.40625 538.671875 235.390625 522.578125 194.84375 490.078125 C 85.546875 402.578125 88.984375 235.15625 201.796875 152.1875 C 240.15625 123.984375 278.828125 110.15625 317.96875 110.78125 C 413.359375 112.109375 457.65625 157.578125 486.875 189.140625 " transform="matrix(0.05,0,0,0.05,0,0)"/>
</g>
</g>
<path style="fill:none;stroke-width:48;stroke-linecap:butt;stroke-linejoin:miter;stroke:rgb(94.901961%,47.843137%,1.176471%);stroke-opacity:1;stroke-miterlimit:4;" d="M 366.015625 343.4375 L 513.046875 344.140625 " transform="matrix(0.05,0,0,0.05,0,0)"/>
<path style=" stroke:none;fill-rule:nonzero;fill:rgb(94.901961%,47.843137%,1.176471%);fill-opacity:1;" d="M 18.339844 18.375 L 16.070312 18.363281 L 18.296875 15.980469 Z M 18.339844 18.375 "/>
</g>
</svg>
