<?xml version="1.0" encoding="UTF-8"?>
<svg xmlns="http://www.w3.org/2000/svg" xmlns:xlink="http://www.w3.org/1999/xlink" width="32px" height="21px" viewBox="0 0 31 21" version="1.1">
<g id="surface1">
<path style=" stroke:none;fill-rule:nonzero;fill:rgb(0%,16.862745%,39.215686%);fill-opacity:1;" d="M 30.316406 0 C 29.839844 0.015625 29.992188 0.15625 28.957031 0.417969 C 27.914062 0.679688 26.640625 0.597656 25.515625 1.078125 C 22.160156 2.515625 21.488281 7.417969 18.4375 9.175781 C 16.160156 10.492188 13.859375 10.59375 11.789062 11.257812 C 10.433594 11.691406 8.945312 12.582031 7.714844 13.664062 C 6.757812 14.503906 6.734375 15.246094 5.734375 16.300781 C 4.667969 17.425781 1.488281 16.316406 0.0507812 18.042969 C 0.515625 18.523438 0.71875 18.65625 1.632812 18.53125 C 1.441406 18.898438 0.328125 19.207031 0.546875 19.746094 C 0.773438 20.3125 3.472656 20.695312 5.921875 19.183594 C 7.066406 18.480469 7.972656 17.46875 9.753906 17.226562 C 12.054688 16.914062 14.703125 17.425781 17.367188 17.820312 C 16.972656 19.019531 16.179688 19.820312 15.542969 20.777344 C 15.347656 20.992188 15.941406 21.015625 16.613281 20.886719 C 17.828125 20.578125 18.703125 20.332031 19.621094 19.789062 C 20.746094 19.121094 20.917969 17.40625 22.300781 17.035156 C 23.070312 18.242188 25.164062 18.527344 26.460938 17.5625 C 25.320312 17.230469 25.007812 14.757812 25.390625 13.664062 C 25.757812 12.632812 26.117188 10.980469 26.484375 9.617188 C 26.878906 8.148438 27.023438 6.300781 27.5 5.554688 C 28.21875 4.433594 29.011719 4.046875 29.699219 3.414062 C 30.386719 2.78125 31.015625 2.164062 30.996094 0.714844 C 30.988281 0.246094 30.753906 -0.0117188 30.316406 0 Z M 30.316406 0 "/>
<path style=" stroke:none;fill-rule:nonzero;fill:rgb(100%,100%,100%);fill-opacity:1;" d="M 1.039062 19.640625 C 2.785156 19.894531 3.847656 19.640625 5.25 19.019531 C 6.441406 18.492188 7.59375 17.40625 9.003906 16.945312 C 11.070312 16.265625 13.339844 16.945312 15.550781 17.078125 C 16.089844 17.113281 16.625 17.113281 17.152344 17.054688 C 17.976562 16.539062 17.960938 14.605469 18.761719 14.429688 C 18.738281 17.140625 17.648438 18.765625 16.511719 20.335938 C 18.910156 19.902344 20.347656 18.488281 21.320312 16.59375 C 21.613281 16.019531 21.863281 15.402344 22.085938 14.757812 C 22.429688 15.027344 22.234375 15.84375 22.410156 16.289062 C 24.0625 15.347656 25.007812 13.203125 25.636719 11.035156 C 26.363281 8.523438 26.660156 5.980469 27.128906 5.238281 C 27.582031 4.511719 28.292969 4.066406 28.945312 3.601562 C 29.679688 3.074219 30.339844 2.523438 30.453125 1.519531 C 29.675781 1.445312 29.496094 1.261719 29.378906 0.863281 C 28.992188 1.085938 28.632812 1.132812 28.226562 1.144531 C 27.878906 1.15625 27.492188 1.140625 27.019531 1.191406 C 23.125 1.597656 22.632812 5.976562 20.136719 8.460938 C 19.953125 8.640625 19.757812 8.808594 19.550781 8.964844 C 18.675781 9.628906 17.605469 10.105469 16.617188 10.488281 C 15.023438 11.113281 13.503906 11.15625 12.007812 11.695312 C 10.90625 12.085938 9.789062 12.660156 8.886719 13.289062 C 8.667969 13.441406 8.457031 13.601562 8.253906 13.773438 C 7.722656 14.214844 7.375 14.707031 7.039062 15.210938 C 6.691406 15.730469 6.355469 16.265625 5.847656 16.777344 C 5.019531 17.605469 1.925781 17.019531 0.839844 17.789062 C 0.714844 17.871094 0.621094 17.976562 0.554688 18.097656 C 1.148438 18.375 1.546875 18.203125 2.230469 18.28125 C 2.316406 18.945312 0.820312 19.335938 1.039062 19.640625 Z M 24.632812 14.875 C 24.679688 15.636719 25.109375 17.140625 25.492188 17.507812 C 24.746094 17.691406 23.460938 17.386719 23.128906 16.847656 C 23.296875 16.074219 24.179688 15.363281 24.632812 14.875 Z M 24.632812 14.875 "/>
<path style=" stroke:none;fill-rule:nonzero;fill:rgb(0%,16.862745%,39.215686%);fill-opacity:1;" d="M 25.726562 2.832031 C 26.277344 3.320312 27.433594 2.929688 27.226562 1.957031 C 26.371094 1.886719 25.875 2.183594 25.726562 2.832031 Z M 29.570312 1.699219 C 29.421875 2.011719 29.140625 2.417969 29.140625 3.214844 C 29.140625 3.351562 29.039062 3.445312 29.039062 3.234375 C 29.046875 2.453125 29.25 2.117188 29.464844 1.671875 C 29.5625 1.492188 29.625 1.566406 29.570312 1.699219 Z M 29.570312 1.699219 "/>
<path style=" stroke:none;fill-rule:nonzero;fill:rgb(0%,16.862745%,39.215686%);fill-opacity:1;" d="M 29.421875 1.578125 C 29.25 1.878906 28.832031 2.425781 28.761719 3.222656 C 28.75 3.355469 28.640625 3.441406 28.660156 3.230469 C 28.734375 2.453125 29.066406 1.96875 29.320312 1.546875 C 29.433594 1.375 29.488281 1.453125 29.421875 1.578125 Z M 29.285156 1.421875 C 29.089844 1.707031 28.449219 2.363281 28.316406 3.148438 C 28.289062 3.285156 28.175781 3.359375 28.210938 3.148438 C 28.347656 2.382812 28.902344 1.777344 29.1875 1.378906 C 29.316406 1.21875 29.363281 1.304688 29.285156 1.421875 Z M 29.167969 1.25 C 28.933594 1.5 28.167969 2.335938 27.925781 3.097656 C 27.886719 3.226562 27.761719 3.285156 27.824219 3.082031 C 28.066406 2.34375 28.734375 1.546875 29.074219 1.191406 C 29.222656 1.050781 29.257812 1.140625 29.167969 1.25 Z M 29.167969 1.25 "/>
</g>
</svg>
