<?xml version="1.0" encoding="UTF-8"?>
<svg xmlns="http://www.w3.org/2000/svg" xmlns:xlink="http://www.w3.org/1999/xlink" width="32px" height="31px" viewBox="0 0 32 31" version="1.1">
<g id="surface1">
<path style=" stroke:none;fill-rule:nonzero;fill:rgb(0%,32.941176%,41.960784%);fill-opacity:1;" d="M 29.457031 23.890625 C 27.714844 23.847656 26.367188 24.019531 25.238281 24.488281 C 24.910156 24.617188 24.390625 24.617188 24.34375 25.023438 C 24.519531 25.195312 24.539062 25.472656 24.691406 25.710938 C 24.953125 26.136719 25.410156 26.714844 25.824219 27.015625 C 26.28125 27.359375 26.738281 27.699219 27.214844 28 C 28.0625 28.511719 29.019531 28.8125 29.847656 29.328125 C 30.324219 29.625 30.804688 30.011719 31.28125 30.332031 C 31.523438 30.503906 31.675781 30.78125 31.980469 30.890625 L 31.980469 30.824219 C 31.828125 30.632812 31.78125 30.355469 31.628906 30.140625 C 31.414062 29.925781 31.195312 29.734375 30.976562 29.519531 C 30.347656 28.683594 29.566406 27.957031 28.714844 27.359375 C 28.019531 26.886719 26.5 26.246094 26.214844 25.453125 C 26.214844 25.453125 26.195312 25.433594 26.171875 25.410156 C 26.652344 25.367188 27.214844 25.195312 27.671875 25.066406 C 28.414062 24.875 29.085938 24.917969 29.847656 24.726562 C 30.195312 24.640625 30.542969 24.53125 30.890625 24.425781 L 30.890625 24.234375 C 30.5 23.847656 30.21875 23.335938 29.804688 22.96875 C 28.695312 22.027344 27.476562 21.109375 26.214844 20.339844 C 25.542969 19.910156 24.671875 19.632812 23.953125 19.269531 C 23.691406 19.140625 23.257812 19.074219 23.105469 18.859375 C 22.714844 18.390625 22.496094 17.769531 22.214844 17.214844 C 21.582031 16.035156 20.972656 14.730469 20.429688 13.488281 C 20.039062 12.65625 19.800781 11.820312 19.320312 11.050781 C 17.082031 7.410156 14.644531 5.207031 10.90625 3.046875 C 10.101562 2.597656 9.144531 2.402344 8.121094 2.167969 C 7.578125 2.144531 7.035156 2.105469 6.492188 2.082031 C 6.144531 1.933594 5.792969 1.527344 5.488281 1.332031 C 4.25 0.5625 1.054688 -1.105469 0.140625 1.097656 C -0.445312 2.488281 1.011719 3.859375 1.511719 4.566406 C 1.878906 5.058594 2.359375 5.613281 2.621094 6.171875 C 2.773438 6.535156 2.816406 6.917969 2.96875 7.304688 C 3.316406 8.246094 3.640625 9.292969 4.097656 10.171875 C 4.335938 10.621094 4.597656 11.09375 4.902344 11.5 C 5.078125 11.734375 5.382812 11.839844 5.445312 12.226562 C 5.140625 12.65625 5.121094 13.296875 4.945312 13.832031 C 4.164062 16.25 4.46875 19.246094 5.578125 21.023438 C 5.925781 21.558594 6.75 22.734375 7.859375 22.285156 C 8.839844 21.898438 8.621094 20.679688 8.90625 19.609375 C 8.96875 19.351562 8.925781 19.183594 9.058594 19.011719 L 9.058594 19.054688 C 9.359375 19.652344 9.664062 20.230469 9.949219 20.832031 C 10.621094 21.878906 11.796875 22.96875 12.777344 23.699219 C 13.296875 24.082031 13.710938 24.746094 14.363281 24.980469 L 14.363281 24.917969 L 14.320312 24.917969 C 14.1875 24.726562 13.992188 24.640625 13.820312 24.488281 C 13.429688 24.105469 12.992188 23.632812 12.6875 23.207031 C 11.773438 22.007812 10.96875 20.679688 10.253906 19.308594 C 9.90625 18.648438 9.601562 17.917969 9.316406 17.257812 C 9.1875 17 9.1875 16.613281 8.96875 16.484375 C 8.644531 16.957031 8.164062 17.363281 7.925781 17.941406 C 7.511719 18.859375 7.46875 19.996094 7.316406 21.171875 C 7.230469 21.195312 7.273438 21.171875 7.230469 21.214844 C 6.535156 21.042969 6.292969 20.339844 6.035156 19.738281 C 5.382812 18.21875 5.273438 15.78125 5.839844 14.023438 C 5.992188 13.574219 6.644531 12.164062 6.382812 11.734375 C 6.25 11.328125 5.816406 11.09375 5.578125 10.769531 C 5.292969 10.363281 4.988281 9.851562 4.792969 9.402344 C 4.273438 8.203125 4.011719 6.875 3.445312 5.675781 C 3.183594 5.121094 2.726562 4.542969 2.359375 4.03125 C 1.945312 3.453125 1.488281 3.046875 1.164062 2.359375 C 1.054688 2.125 0.902344 1.738281 1.074219 1.484375 C 1.117188 1.3125 1.207031 1.246094 1.378906 1.203125 C 1.664062 0.96875 2.46875 1.269531 2.75 1.398438 C 3.554688 1.71875 4.230469 2.019531 4.902344 2.46875 C 5.207031 2.679688 5.535156 3.089844 5.925781 3.195312 L 6.382812 3.195312 C 7.078125 3.34375 7.859375 3.238281 8.511719 3.429688 C 9.664062 3.792969 10.710938 4.328125 11.644531 4.90625 C 14.492188 6.683594 16.84375 9.207031 18.429688 12.226562 C 18.691406 12.71875 18.800781 13.167969 19.039062 13.683594 C 19.496094 14.730469 20.0625 15.800781 20.519531 16.828125 C 20.972656 17.832031 21.410156 18.859375 22.0625 19.695312 C 22.386719 20.144531 23.691406 20.378906 24.28125 20.617188 C 24.714844 20.808594 25.390625 20.980469 25.78125 21.214844 C 26.519531 21.664062 27.257812 22.179688 27.957031 22.671875 C 28.304688 22.925781 29.390625 23.460938 29.457031 23.890625 Z M 29.457031 23.890625 "/>
<path style=" stroke:none;fill-rule:nonzero;fill:rgb(0%,32.941176%,41.960784%);fill-opacity:1;" d="M 7.273438 5.292969 C 6.902344 5.292969 6.644531 5.335938 6.382812 5.398438 L 6.382812 5.441406 L 6.425781 5.441406 C 6.597656 5.785156 6.902344 6.019531 7.121094 6.320312 C 7.296875 6.660156 7.445312 7.003906 7.621094 7.347656 C 7.644531 7.324219 7.664062 7.304688 7.664062 7.304688 C 7.96875 7.089844 8.121094 6.746094 8.121094 6.234375 C 7.992188 6.085938 7.96875 5.933594 7.859375 5.785156 C 7.730469 5.570312 7.445312 5.464844 7.273438 5.292969 Z M 7.273438 5.292969 "/>
</g>
</svg>
