<?xml version="1.0" encoding="UTF-8"?>
<svg xmlns="http://www.w3.org/2000/svg" xmlns:xlink="http://www.w3.org/1999/xlink" width="32px" height="px" viewBox="0 0 31 31" version="1.1">
<defs>
<linearGradient id="linear0" gradientUnits="userSpaceOnUse" x1="0.5" y1="0" x2="0.5" y2="1" gradientTransform="matrix(30.992188,0,0,30.929687,0.00390625,0.0703125)">
<stop offset="0" style="stop-color:rgb(98.431373%,70.196078%,18.431373%);stop-opacity:1;"/>
<stop offset="0.50474" style="stop-color:rgb(75.686275%,8.235294%,6.666667%);stop-opacity:1;"/>
<stop offset="1" style="stop-color:rgb(75.686275%,7.843137%,6.666667%);stop-opacity:1;"/>
</linearGradient>
</defs>
<g id="surface1">
<path style=" stroke:none;fill-rule:nonzero;fill:url(#linear0);" d="M 15.5 0.0703125 C 6.941406 0.0703125 0.00390625 6.996094 0.00390625 15.535156 C 0.00390625 20.878906 2.71875 25.589844 6.847656 28.367188 L 6.847656 15.542969 C 6.847656 15.523438 6.84375 15.503906 6.84375 15.484375 C 6.84375 15.464844 6.847656 15.449219 6.847656 15.429688 L 6.847656 15.320312 L 6.851562 15.320312 C 6.9375 10.339844 10.765625 6.332031 15.488281 6.332031 C 20.261719 6.332031 24.128906 10.429688 24.128906 15.484375 C 24.128906 20.542969 20.261719 24.640625 15.488281 24.640625 C 13.628906 24.640625 11.910156 24.011719 10.5 22.953125 L 10.5 30.171875 C 12.113281 30.722656 13.800781 31 15.5 31 C 24.058594 31 30.996094 24.078125 30.996094 15.535156 C 30.996094 6.996094 24.058594 0.0703125 15.5 0.0703125 "/>
<path style=" stroke:none;fill-rule:nonzero;fill:rgb(98.823529%,70.588235%,18.431373%);fill-opacity:1;" d="M 20.730469 15.804688 C 20.730469 18.730469 18.414062 21.101562 15.558594 21.101562 C 12.703125 21.101562 10.386719 18.730469 10.386719 15.804688 C 10.386719 12.882812 12.703125 10.511719 15.558594 10.511719 C 18.414062 10.511719 20.730469 12.882812 20.730469 15.804688 "/>
</g>
</svg>
