<?xml version="1.0" encoding="UTF-8" standalone="no"?>
<svg xmlns="http://www.w3.org/2000/svg" xmlns:xlink="http://www.w3.org/1999/xlink" width="30px" height="32px" viewBox="0 0 30 31" version="1.1">
<g id="surface1">
<path style=" stroke:none;fill-rule:nonzero;fill:rgb(100%,100%,100%);fill-opacity:1;" d="M 6.839844 0.9375 L 11.394531 2.582031 L 14.183594 7.695312 L 12.683594 9.398438 L 10.96875 9.484375 L 8.164062 6.765625 L 5.964844 1.917969 Z M 6.839844 0.9375 "/>
<path style="fill-rule:evenodd;fill:rgb(97.647059%,97.647059%,97.647059%);fill-opacity:1;stroke-width:0.716537;stroke-linecap:butt;stroke-linejoin:round;stroke:rgb(100%,100%,100%);stroke-opacity:1;stroke-miterlimit:2;" d="M 12.885442 11.917105 L 14.999301 9.85477 L 14.999301 9.148163 L 12.885442 6.961274 L 12.178474 7.667881 L 13.439743 8.999656 L 10.0012 8.999656 L 10.0012 10.000882 L 13.439743 10.000882 L 12.178474 11.210498 Z M 12.885442 11.917105 " transform="matrix(1.663132,0,0,1.630812,-12.16456,2.71778)"/>
<path style="fill-rule:evenodd;fill:rgb(97.647059%,97.647059%,97.647059%);fill-opacity:1;stroke-width:0.716537;stroke-linecap:butt;stroke-linejoin:round;stroke:rgb(100%,100%,100%);stroke-opacity:1;stroke-miterlimit:2;" d="M 12.886026 11.917105 L 14.999884 9.85477 L 14.999884 9.148163 L 12.886026 6.961274 L 12.179057 7.667881 L 13.437978 8.999656 L 10.001783 8.999656 L 10.001783 10.000882 L 13.440326 10.000882 L 12.179057 11.210498 Z M 12.886026 11.917105 " transform="matrix(-1.663132,0,0,1.630812,46.048343,2.71778)"/>
<path style="fill-rule:evenodd;fill:rgb(97.647059%,97.647059%,97.647059%);fill-opacity:1;stroke-width:0.716537;stroke-linecap:butt;stroke-linejoin:round;stroke:rgb(100%,100%,100%);stroke-opacity:1;stroke-miterlimit:2;" d="M 12.885259 11.916294 L 15.00029 9.854107 L 15.00029 9.147139 L 12.885259 6.962818 L 12.178652 7.669787 L 13.438568 8.999169 L 10.001344 8.999169 L 10.001344 9.999729 L 13.440964 9.999729 L 12.178652 11.209325 Z M 12.885259 11.916294 " transform="matrix(0,-1.630812,-1.663132,0,32.708989,30.439223)"/>
<path style="fill-rule:evenodd;fill:rgb(97.647059%,97.647059%,97.647059%);fill-opacity:1;stroke-width:0.716537;stroke-linecap:butt;stroke-linejoin:round;stroke:rgb(100%,100%,100%);stroke-opacity:1;stroke-miterlimit:2;" d="M 12.885864 11.916294 L 15.000895 9.854107 L 15.000895 9.147139 L 12.885864 6.962818 L 12.179257 7.669787 L 13.439173 8.999169 L 10.001949 8.999169 L 10.001949 9.999729 L 13.439173 9.999729 L 12.179257 11.209325 Z M 12.885864 11.916294 " transform="matrix(0,1.630812,-1.663132,0,32.708989,5.973854)"/>
<path style="fill-rule:evenodd;fill:rgb(97.647059%,97.647059%,97.647059%);fill-opacity:1;stroke-width:1.324;stroke-linecap:butt;stroke-linejoin:round;stroke:rgb(100%,100%,100%);stroke-opacity:1;stroke-miterlimit:2;" d="M 7.509798 3.995457 C 9.441069 3.995457 11.007786 5.562241 11.007786 7.491951 C 11.007786 9.421662 9.441069 10.988446 7.509798 10.988446 C 5.578528 10.988446 4.011811 9.421662 4.011811 7.491951 C 4.011811 5.562241 5.578528 3.995457 7.509798 3.995457 Z M 7.509798 5.296684 C 6.298957 5.296684 5.313792 6.279243 5.313792 7.491951 C 5.313792 8.70466 6.298957 9.687219 7.509798 9.687219 C 8.72064 9.687219 9.705805 8.70466 9.705805 7.491951 C 9.705805 6.279243 8.72064 5.296684 7.509798 5.296684 Z M 7.509798 5.296684 " transform="matrix(0.900071,0,0,0.88258,10.170334,11.579156)"/>
<path style="fill-rule:evenodd;fill:rgb(97.647059%,97.647059%,97.647059%);fill-opacity:1;stroke-width:8.4567;stroke-linecap:butt;stroke-linejoin:round;stroke:rgb(100%,100%,100%);stroke-opacity:1;stroke-miterlimit:2;" d="M 75.262073 66.083509 L 75.262073 81.603471 C 75.262073 88.04892 58.158734 93.278779 37.119132 93.278779 C 16.07953 93.278779 -0.996089 88.04892 -0.996089 81.603471 L -0.996089 61.192884 L -0.663447 61.192884 C -0.885209 61.758274 -0.996089 62.323664 -0.996089 62.917324 C -1.16241 70.352205 16.07953 76.317072 37.119132 76.317072 C 55.414438 76.317072 70.688247 71.79395 74.402748 65.744275 L 74.62451 65.829083 C 74.73539 65.885623 74.873991 65.942162 74.984872 65.970431 Z M 68.997317 64.811381 C 62.178157 68.118914 50.452529 70.408744 37.119132 70.408744 C 16.10725 70.408744 -0.968369 64.698303 -0.996089 58.252854 L -0.996089 37.842267 C -0.996089 47.029858 16.07953 52.825108 37.119132 52.825108 C 38.47742 52.825108 39.780267 52.796839 41.083115 52.71203 C 41.99788 56.16091 43.66109 59.355365 46.571707 61.645196 C 50.785171 64.952729 58.214174 65.291963 59.988265 60.288259 C 62.289038 63.369636 65.975819 64.189452 68.304313 64.783112 C 68.553794 64.783112 68.775556 64.783112 68.997317 64.811381 Z M 91.94961 49.517575 C 92.448573 50.196043 92.892096 50.111235 92.892096 48.612951 C 92.864376 47.086397 92.753495 46.690624 92.393133 45.050992 C 92.143651 43.863673 90.535882 39.42536 89.122154 36.174366 C 88.151948 33.969344 86.627339 30.887967 85.407652 28.880832 C 79.614139 19.354006 73.377102 13.587026 63.702766 7.933123 C 61.651474 6.717534 59.2121 6.095605 56.550965 5.615023 C 54.721434 5.304059 53.751228 5.445406 52.3375 5.360598 C 51.478175 5.021364 50.59113 3.975392 49.787245 3.438271 C 46.571707 1.431136 38.366539 -2.978908 35.982605 2.816342 C 34.485717 6.463109 38.227938 10.025067 39.558506 11.890855 C 40.500992 13.191253 41.720679 14.661267 42.385962 16.103012 C 42.829485 17.064176 42.884925 18.025339 43.273008 19.043042 C 44.215493 21.559028 45.019378 24.272901 46.211345 26.591001 C 46.821188 27.750051 47.486472 28.99391 48.262637 30.039882 C 48.733879 30.69008 49.537764 30.972775 49.648645 31.962208 C 48.87248 33.064719 48.81704 34.78916 48.373517 36.174366 C 46.377666 42.478467 47.12611 50.309122 50.036727 54.973591 C 50.923772 56.415336 53.030504 59.468443 55.913401 58.309393 C 58.435936 57.263421 57.881532 54.068967 58.602257 51.270285 C 58.768578 50.620086 58.990339 49.23488 58.990339 49.26315 C 59.738783 50.789703 60.542668 53.30569 61.596034 54.634357 C 62.815721 56.16091 63.508725 56.895918 65.033334 58.026698 C 67.029186 59.440174 73.044461 60.910188 71.630732 59.016131 C 71.27037 58.535549 66.835144 57.037265 64.950174 53.447037 C 64.063128 51.722597 62.53852 48.895646 61.928676 46.888511 C 61.734635 46.181773 60.514948 44.03329 59.905104 43.665786 C 59.073499 44.966184 57.271689 45.390226 56.634125 46.91678 C 55.608479 49.347958 56.079722 53.164342 54.943195 54.097236 C 54.388792 54.577818 53.778949 54.153775 52.864183 52.71203 C 50.56341 48.980454 50.56341 41.71519 51.949418 36.683217 C 52.25434 35.495897 53.335426 31.764322 52.642422 30.69008 C 52.30978 29.587569 51.921698 28.96564 51.311854 28.117555 C 50.53569 27.099852 49.787245 25.742916 49.260562 24.555596 C 47.874554 21.44595 47.12611 17.9688 45.684662 14.830884 C 45.019378 13.3326 43.855131 11.806047 42.884925 10.477379 C 41.831559 9.007365 40.639592 7.933123 39.835708 6.123875 C 39.530786 5.501945 38.810062 4.484243 39.225864 3.834044 C 39.364465 3.410002 40.22379 3.268654 40.999954 3.579619 C 43.051246 4.427704 44.742176 5.24752 46.488546 6.40657 C 47.320151 6.943691 48.151756 8.017932 49.177402 8.300627 L 50.313929 8.300627 C 52.115739 8.72467 54.139311 8.441975 55.80252 8.950826 C 58.768578 9.85545 62.011836 11.268926 64.451211 12.795479 C 71.797053 17.431679 78.394452 24.046745 82.524756 31.962208 C 83.190039 33.234336 84.908689 36.683217 85.518533 38.040153 C 86.68278 40.754027 86.7105 41.319417 87.874747 43.976751 C 89.066714 46.634085 90.286401 47.312553 91.94961 49.517575 Z M 40.22379 46.831972 C 39.198144 46.860241 38.144778 46.860241 37.091412 46.860241 C 16.024089 46.860241 -0.996089 41.319417 -0.996089 34.873968 L -0.996089 14.49165 C -0.968369 23.368277 15.913209 29.220066 36.952811 29.220066 C 37.839856 29.220066 38.699181 29.191796 39.558506 29.163527 C 40.16835 30.237768 40.833633 31.170662 41.526637 31.820861 C 41.637518 32.697216 39.863428 39.566707 40.22379 46.831972 Z M -0.996089 37.813997 L -0.996089 37.842267 Z M 60.87531 17.346871 C 59.738783 17.318601 58.907178 17.459949 58.047853 17.657835 L 58.047853 17.827453 C 58.103294 17.827453 58.158734 17.770914 58.186454 17.827453 C 59.12894 19.099581 59.267541 18.788616 60.404067 20.654404 C 61.041631 21.700376 61.457433 22.859426 61.984116 23.961937 C 62.039557 23.933667 62.094997 23.877128 62.150437 23.820589 C 63.120643 23.142121 63.508725 22.322305 63.342404 20.654404 C 63.259244 19.778049 63.120643 19.410545 62.788001 18.929963 C 62.316758 18.279765 61.679195 17.516488 60.87531 17.346871 Z M -0.885209 12.456245 C 5.490428 6.095605 15.358806 2.279221 30.105931 2.533647 C 26.557751 7.593889 34.319396 15.198388 35.206441 17.99707 C 35.400482 18.675538 36.038046 20.85229 36.952811 23.340007 C 16.994295 23.311738 0.6394 18.477651 -0.885209 12.456245 Z M -0.885209 12.456245 " transform="matrix(0.140917,0,0,0.138179,0.738022,0.595216)"/>
<path style=" stroke:none;fill-rule:evenodd;fill:rgb(17.254902%,34.901961%,40.392157%);fill-opacity:1;" d="M 9.265625 22.152344 L 12.78125 18.785156 L 12.78125 17.632812 L 9.265625 14.070312 L 8.089844 15.222656 L 10.1875 17.394531 L 4.46875 17.394531 L 4.46875 19.023438 L 10.1875 19.023438 L 8.089844 20.996094 Z M 9.265625 22.152344 "/>
<path style=" stroke:none;fill-rule:evenodd;fill:rgb(17.254902%,34.901961%,40.392157%);fill-opacity:1;" d="M 24.617188 22.152344 L 21.101562 18.785156 L 21.101562 17.632812 L 24.617188 14.070312 L 25.792969 15.222656 L 23.699219 17.394531 L 29.414062 17.394531 L 29.414062 19.023438 L 23.695312 19.023438 L 25.792969 20.996094 Z M 24.617188 22.152344 "/>
<path style=" stroke:none;fill-rule:evenodd;fill:rgb(17.254902%,34.901961%,40.392157%);fill-opacity:1;" d="M 12.890625 9.421875 L 16.320312 5.976562 L 17.496094 5.976562 L 21.128906 9.421875 L 19.953125 10.574219 L 17.742188 8.519531 L 17.742188 14.125 L 16.078125 14.125 L 16.078125 8.519531 L 14.066406 10.574219 Z M 12.890625 9.421875 "/>
<path style=" stroke:none;fill-rule:evenodd;fill:rgb(17.254902%,34.901961%,40.392157%);fill-opacity:1;" d="M 12.890625 26.988281 L 16.320312 30.433594 L 17.496094 30.433594 L 21.128906 26.988281 L 19.953125 25.835938 L 17.742188 27.890625 L 17.742188 22.285156 L 16.078125 22.285156 L 16.078125 27.890625 L 14.066406 25.835938 Z M 12.890625 26.988281 "/>
<path style=" stroke:none;fill-rule:evenodd;fill:rgb(17.254902%,34.901961%,40.392157%);fill-opacity:1;" d="M 16.929688 15.105469 C 18.667969 15.105469 20.078125 16.488281 20.078125 18.191406 C 20.078125 19.894531 18.667969 21.277344 16.929688 21.277344 C 15.191406 21.277344 13.78125 19.894531 13.78125 18.191406 C 13.78125 16.488281 15.191406 15.105469 16.929688 15.105469 Z M 16.929688 16.25 C 15.839844 16.25 14.953125 17.121094 14.953125 18.191406 C 14.953125 19.261719 15.839844 20.128906 16.929688 20.128906 C 18.019531 20.128906 18.90625 19.261719 18.90625 18.191406 C 18.90625 17.121094 18.019531 16.25 16.929688 16.25 Z M 16.929688 16.25 "/>
<path style=" stroke:none;fill-rule:evenodd;fill:rgb(17.254902%,34.901961%,40.392157%);fill-opacity:1;" d="M 11.34375 9.726562 L 11.34375 11.867188 C 11.34375 12.761719 8.933594 13.484375 5.96875 13.484375 C 3.003906 13.484375 0.597656 12.761719 0.597656 11.867188 L 0.597656 9.046875 L 0.644531 9.046875 C 0.613281 9.125 0.597656 9.207031 0.597656 9.289062 C 0.574219 10.316406 3.003906 11.140625 5.96875 11.140625 C 8.546875 11.140625 10.699219 10.515625 11.222656 9.679688 L 11.253906 9.691406 C 11.269531 9.699219 11.289062 9.703125 11.304688 9.710938 Z M 10.460938 9.546875 C 9.5 10.007812 7.847656 10.324219 5.96875 10.324219 C 3.007812 10.324219 0.601562 9.535156 0.597656 8.644531 L 0.597656 5.820312 C 0.597656 7.09375 3.003906 7.890625 5.96875 7.890625 C 6.160156 7.890625 6.34375 7.886719 6.527344 7.878906 C 6.65625 8.355469 6.890625 8.792969 7.300781 9.109375 C 7.894531 9.570312 8.941406 9.617188 9.191406 8.921875 C 9.515625 9.351562 10.035156 9.464844 10.363281 9.546875 C 10.398438 9.546875 10.429688 9.546875 10.460938 9.546875 Z M 13.695312 7.4375 C 13.765625 7.53125 13.828125 7.519531 13.828125 7.308594 C 13.824219 7.101562 13.808594 7.042969 13.757812 6.820312 C 13.722656 6.65625 13.496094 6.042969 13.296875 5.59375 C 13.160156 5.285156 12.945312 4.859375 12.773438 4.585938 C 11.957031 3.265625 11.078125 2.472656 9.714844 1.6875 C 9.425781 1.523438 9.082031 1.4375 8.707031 1.371094 C 8.449219 1.324219 8.3125 1.347656 8.113281 1.335938 C 7.992188 1.285156 7.867188 1.140625 7.753906 1.070312 C 7.300781 0.789062 6.144531 0.183594 5.808594 0.980469 C 5.597656 1.488281 6.125 1.980469 6.3125 2.238281 C 6.445312 2.417969 6.617188 2.617188 6.710938 2.820312 C 6.773438 2.953125 6.78125 3.085938 6.835938 3.226562 C 6.96875 3.570312 7.082031 3.949219 7.25 4.269531 C 7.335938 4.429688 7.429688 4.601562 7.539062 4.746094 C 7.605469 4.832031 7.71875 4.875 7.734375 5.011719 C 7.625 5.164062 7.617188 5.398438 7.554688 5.59375 C 7.273438 6.464844 7.378906 7.546875 7.789062 8.191406 C 7.914062 8.386719 8.210938 8.8125 8.617188 8.648438 C 8.972656 8.507812 8.894531 8.066406 8.996094 7.675781 C 9.019531 7.589844 9.050781 7.394531 9.050781 7.402344 C 9.15625 7.613281 9.269531 7.960938 9.417969 8.144531 C 9.589844 8.355469 9.6875 8.457031 9.902344 8.609375 C 10.183594 8.808594 11.03125 9.007812 10.832031 8.75 C 10.78125 8.683594 10.15625 8.476562 9.890625 7.980469 C 9.765625 7.742188 9.550781 7.347656 9.464844 7.074219 C 9.4375 6.976562 9.265625 6.675781 9.179688 6.628906 C 9.0625 6.804688 8.808594 6.867188 8.71875 7.078125 C 8.574219 7.410156 8.640625 7.9375 8.480469 8.070312 C 8.402344 8.136719 8.316406 8.078125 8.1875 7.878906 C 7.863281 7.363281 7.863281 6.359375 8.058594 5.664062 C 8.101562 5.496094 8.253906 4.984375 8.15625 4.832031 C 8.109375 4.683594 8.054688 4.59375 7.96875 4.480469 C 7.859375 4.339844 7.753906 4.148438 7.679688 3.984375 C 7.484375 3.558594 7.378906 3.074219 7.175781 2.644531 C 7.082031 2.4375 6.917969 2.226562 6.78125 2.042969 C 6.632812 1.839844 6.464844 1.6875 6.351562 1.441406 C 6.308594 1.355469 6.207031 1.214844 6.265625 1.125 C 6.285156 1.0625 6.40625 1.042969 6.515625 1.089844 C 6.804688 1.207031 7.042969 1.316406 7.289062 1.476562 C 7.40625 1.554688 7.523438 1.699219 7.667969 1.742188 L 7.828125 1.742188 C 8.082031 1.800781 8.367188 1.761719 8.601562 1.832031 C 9.019531 1.957031 9.476562 2.148438 9.820312 2.359375 C 10.855469 3.003906 11.785156 3.917969 12.367188 5.011719 C 12.460938 5.1875 12.703125 5.660156 12.789062 5.847656 C 12.953125 6.222656 12.957031 6.304688 13.121094 6.671875 C 13.289062 7.039062 13.460938 7.132812 13.695312 7.4375 Z M 6.40625 7.0625 C 6.261719 7.066406 6.113281 7.070312 5.964844 7.070312 C 2.996094 7.070312 0.597656 6.304688 0.597656 5.414062 L 0.597656 2.59375 C 0.601562 3.824219 2.980469 4.628906 5.945312 4.628906 C 6.070312 4.628906 6.191406 4.628906 6.3125 4.625 C 6.398438 4.773438 6.492188 4.902344 6.589844 4.988281 C 6.605469 5.113281 6.355469 6.058594 6.40625 7.0625 Z M 0.597656 5.816406 L 0.597656 5.820312 Z M 9.316406 2.992188 C 9.15625 2.988281 9.039062 3.007812 8.917969 3.035156 L 8.917969 3.054688 C 8.925781 3.054688 8.933594 3.050781 8.9375 3.054688 C 9.070312 3.234375 9.089844 3.1875 9.25 3.449219 C 9.339844 3.59375 9.398438 3.753906 9.472656 3.90625 C 9.480469 3.898438 9.488281 3.890625 9.496094 3.886719 C 9.632812 3.789062 9.6875 3.679688 9.664062 3.445312 C 9.652344 3.328125 9.632812 3.277344 9.585938 3.207031 C 9.519531 3.117188 9.429688 3.015625 9.316406 2.992188 Z M 0.613281 2.316406 C 1.511719 1.433594 2.902344 0.90625 4.980469 0.945312 C 4.480469 1.640625 5.574219 2.691406 5.699219 3.082031 C 5.726562 3.171875 5.816406 3.476562 5.945312 3.820312 C 3.132812 3.8125 0.828125 3.144531 0.613281 2.316406 Z M 0.613281 2.316406 "/>
</g>
</svg>
