<?xml version="1.0" encoding="UTF-8" standalone="no"?>
<!DOCTYPE svg PUBLIC "-//W3C//DTD SVG 20010904//EN" "http://www.w3.org/TR/2001/REC-SVG-20010904/DTD/svg10.dtd">
<svg xmlns="http://www.w3.org/2000/svg" xmlns:xlink="http://www.w3.org/1999/xlink" width="32px" height="32px" viewBox="0 0 32 32" version="1.1">
<g fill="#2E0886FF">
<path d="M 137.50 284.98 C 100.93 281.08 67.18 262.58 45.66 234.63 C 39.43 226.54 38.47 225.12 34.07 217.50 L 31.76 213.50 L 34.45 216.50 C 37.10 219.45 37.14 219.46 36.56 217.00 C 36.24 215.62 35.51 208.65 34.93 201.50 C 33.38 182.55 34.88 163.70 39.12 148.50 C 41.61 139.62 45.96 129.00 47.11 129.00 C 47.60 129.00 48.00 128.41 48.00 127.70 C 48.00 124.02 54.40 123.53 55.54 127.12 C 55.87 128.17 56.50 128.81 56.93 128.55 C 57.88 127.95 60.22 132.83 59.52 133.96 C 59.25 134.41 59.80 134.71 60.76 134.64 C 61.86 134.55 62.62 135.33 62.82 136.75 C 63.00 137.99 63.54 139.00 64.03 139.00 C 64.52 139.00 65.80 139.94 66.87 141.09 C 70.34 144.82 72.12 143.26 74.14 134.72 C 75.96 127.00 81.29 114.35 84.35 110.50 C 85.22 109.40 84.18 112.04 82.02 116.37 C 69.53 141.49 71.82 172.09 87.92 195.36 C 92.52 202.01 104.93 213.32 112.50 217.77 C 130.29 228.23 154.40 231.30 173.51 225.55 C 176.20 224.74 178.58 224.25 178.80 224.47 C 179.66 225.33 165.34 229.05 158.83 229.65 C 153.53 230.14 151.58 230.76 150.52 232.28 C 149.32 233.99 149.34 234.59 150.68 236.63 C 151.53 237.93 152.80 239.00 153.50 239.00 C 154.20 239.00 155.00 239.90 155.29 241.00 C 155.58 242.10 156.53 243.00 157.41 243.00 C 158.28 243.00 159.00 243.70 159.00 244.56 C 159.00 245.43 160.35 247.27 162.00 248.66 C 163.65 250.05 164.71 251.66 164.35 252.25 C 163.99 252.83 164.16 253.02 164.72 252.67 C 165.70 252.07 171.70 258.14 176.83 264.93 C 178.16 266.69 179.67 267.73 180.33 267.35 C 180.97 266.98 181.20 267.01 180.84 267.42 C 180.47 267.83 181.25 269.75 182.57 271.70 C 183.89 273.65 184.80 275.52 184.58 275.87 C 184.37 276.22 186.74 276.47 189.85 276.44 C 196.24 276.38 202.03 274.50 213.25 268.87 C 217.51 266.73 221.00 265.20 221.00 265.48 C 221.00 266.51 200.75 276.10 193.30 278.60 C 176.87 284.11 153.98 286.73 137.50 284.98Z"/></g>
<g fill="#CC01F4FF">
<path d="M 263.00 215.00 C 263.00 214.45 262.33 214.00 261.51 214.00 C 260.56 214.00 260.11 213.18 260.26 211.75 C 260.43 210.16 260.03 209.58 258.87 209.77 C 257.96 209.92 255.55 208.03 253.37 205.45 C 251.24 202.94 247.84 199.02 245.81 196.75 C 243.77 194.48 242.38 192.19 242.71 191.66 C 243.07 191.08 242.78 191.02 241.98 191.51 C 241.04 192.09 240.83 191.88 241.26 190.78 C 241.70 189.62 241.36 189.36 239.93 189.73 C 238.84 190.01 238.00 189.73 238.00 189.07 C 238.00 187.79 237.66 187.31 232.60 181.44 C 228.69 176.89 228.66 176.43 231.65 161.50 C 239.42 122.65 233.57 80.41 217.07 56.10 C 208.53 43.53 192.60 30.27 176.15 22.04 C 172.66 20.30 169.98 18.69 170.19 18.47 C 171.24 17.43 191.61 22.56 200.50 26.11 C 218.55 33.30 233.10 43.17 247.07 57.68 C 265.70 77.04 276.85 98.15 282.59 125.00 C 284.98 136.14 285.03 161.89 282.68 173.50 C 279.83 187.65 276.96 196.31 271.76 206.50 C 268.57 212.74 263.00 218.14 263.00 215.00Z"/></g>
<g fill="#CC01F4FF">
<path d="M 19.16 157.15 C 16.64 141.86 19.12 120.29 25.27 104.00 C 38.54 68.86 64.89 42.38 97.46 31.48 C 108.22 27.87 128.27 25.53 135.89 26.99 C 145.10 28.75 150.42 30.31 151.75 31.62 C 153.44 33.30 153.34 33.68 151.00 34.29 C 149.76 34.61 149.00 35.65 149.00 37.01 C 149.00 38.58 148.56 39.04 147.47 38.63 C 146.44 38.23 145.61 38.89 144.96 40.62 C 144.42 42.03 143.09 43.43 142.00 43.71 C 140.91 43.99 140.23 44.57 140.49 44.99 C 140.75 45.40 139.65 47.12 138.04 48.80 C 136.32 50.60 134.96 51.37 134.73 50.68 C 134.51 50.03 133.53 51.19 132.55 53.25 C 131.57 55.31 130.15 57.00 129.39 57.00 C 128.62 57.00 128.00 57.43 128.00 57.96 C 128.00 59.64 123.84 62.87 122.39 62.32 C 121.60 62.02 121.00 62.41 121.00 63.21 C 121.00 64.00 119.88 65.62 118.50 66.81 C 117.12 68.01 116.00 69.42 116.00 69.95 C 116.00 71.12 112.33 72.83 100.26 77.30 C 83.16 83.62 67.06 95.27 56.55 108.93 C 52.40 114.32 41.50 132.56 41.50 134.10 C 41.50 134.50 41.16 135.17 40.75 135.58 C 40.34 136.00 40.00 137.16 40.00 138.17 C 40.00 139.17 39.55 140.00 39.00 140.00 C 38.45 140.00 38.00 140.80 38.00 141.78 C 38.00 142.76 37.30 144.56 36.44 145.78 C 35.59 147.00 35.22 148.00 35.64 148.00 C 36.05 148.00 34.96 149.06 33.21 150.35 C 31.46 151.64 30.29 152.96 30.62 153.29 C 31.37 154.04 24.67 161.00 23.20 161.00 C 22.59 161.00 21.70 161.71 21.21 162.59 C 20.57 163.72 19.99 162.18 19.16 157.15Z"/></g>
<g fill="#6407B7FF">
<path d="M 184.58 275.87 C 184.80 275.52 183.89 273.65 182.57 271.70 C 181.25 269.75 180.47 267.83 180.84 267.42 C 181.20 267.01 180.97 266.98 180.33 267.35 C 179.67 267.73 178.16 266.69 176.83 264.93 C 171.70 258.14 165.70 252.07 164.72 252.67 C 164.16 253.02 163.99 252.83 164.35 252.25 C 164.71 251.66 163.65 250.05 162.00 248.66 C 160.35 247.27 159.00 245.43 159.00 244.56 C 159.00 243.70 158.28 243.00 157.41 243.00 C 156.53 243.00 155.58 242.10 155.29 241.00 C 155.00 239.90 154.20 239.00 153.50 239.00 C 152.80 239.00 151.53 237.93 150.68 236.63 C 149.34 234.59 149.32 233.99 150.52 232.28 C 151.59 230.75 153.54 230.14 159.03 229.63 C 166.55 228.93 181.29 224.56 183.47 222.38 C 184.18 221.68 185.04 221.37 185.38 221.71 C 185.72 222.05 186.00 221.78 186.00 221.11 C 186.00 220.43 186.45 220.16 187.00 220.50 C 187.55 220.84 188.00 220.64 188.00 220.06 C 188.00 219.48 188.34 219.11 188.75 219.24 C 189.98 219.62 200.68 211.28 206.38 205.49 C 209.30 202.52 213.43 197.48 215.56 194.30 C 217.69 191.11 219.85 188.05 220.36 187.50 C 221.86 185.87 215.64 196.94 214.00 198.81 C 213.18 199.75 210.79 202.64 208.70 205.24 C 206.62 207.83 204.19 210.66 203.33 211.53 C 201.29 213.56 202.75 219.57 205.23 219.37 C 206.21 219.30 206.64 219.79 206.31 220.62 C 206.02 221.38 206.31 222.00 206.95 222.00 C 207.59 222.00 207.87 222.40 207.57 222.89 C 207.27 223.37 207.69 224.33 208.51 225.01 C 209.33 225.69 210.00 225.91 210.00 225.50 C 210.00 225.09 210.67 225.31 211.49 225.99 C 212.31 226.67 212.77 227.56 212.52 227.97 C 211.96 228.88 215.83 232.46 218.31 233.34 C 219.36 233.72 219.83 234.47 219.41 235.14 C 219.02 235.78 219.33 236.80 220.10 237.40 C 220.87 238.01 222.12 239.70 222.88 241.17 C 223.78 242.92 224.78 243.64 225.79 243.25 C 226.72 242.89 227.07 243.08 226.68 243.72 C 226.32 244.30 226.93 245.01 228.03 245.30 C 229.14 245.59 230.49 247.12 231.04 248.70 C 231.69 250.56 232.74 251.57 234.02 251.57 C 235.11 251.57 236.00 251.22 236.00 250.79 C 236.00 250.35 236.69 250.00 237.53 250.00 C 239.73 250.00 246.54 243.89 255.90 233.50 C 262.87 225.76 259.05 231.34 251.13 240.47 C 244.46 248.15 233.76 257.68 230.25 259.06 C 229.01 259.55 228.00 260.44 228.00 261.03 C 228.00 261.63 227.55 261.84 226.99 261.50 C 226.44 261.15 225.72 261.57 225.39 262.43 C 225.06 263.29 224.42 263.76 223.96 263.47 C 223.50 263.19 222.68 263.75 222.13 264.73 C 221.59 265.70 220.86 266.34 220.53 266.15 C 219.43 265.52 214.01 268.21 214.56 269.10 C 214.86 269.58 214.33 269.68 213.39 269.32 C 212.23 268.87 211.91 269.04 212.39 269.82 C 212.87 270.60 212.54 270.76 211.39 270.32 C 210.23 269.87 209.91 270.04 210.39 270.82 C 210.87 271.60 210.54 271.76 209.39 271.32 C 208.23 270.87 207.91 271.04 208.39 271.82 C 208.87 272.60 208.54 272.76 207.39 272.32 C 206.13 271.84 205.89 272.01 206.49 272.98 C 207.03 273.86 206.92 274.07 206.17 273.61 C 205.55 273.22 202.89 273.69 200.27 274.65 C 195.76 276.29 183.75 277.23 184.58 275.87Z"/></g>
<g fill="#9404DAFF">
<path d="M 231.04 248.70 C 230.49 247.12 229.14 245.59 228.03 245.30 C 226.93 245.01 226.32 244.30 226.68 243.72 C 227.07 243.08 226.72 242.89 225.79 243.25 C 224.78 243.64 223.78 242.92 222.88 241.17 C 222.12 239.70 220.87 238.01 220.10 237.40 C 219.33 236.80 219.02 235.78 219.41 235.14 C 219.83 234.47 219.36 233.72 218.31 233.34 C 215.83 232.46 211.96 228.88 212.52 227.97 C 212.77 227.56 212.31 226.67 211.49 225.99 C 210.67 225.31 210.00 225.09 210.00 225.50 C 210.00 225.91 209.33 225.69 208.51 225.01 C 207.69 224.33 207.27 223.37 207.57 222.89 C 207.87 222.40 207.59 222.00 206.95 222.00 C 206.31 222.00 206.02 221.38 206.31 220.62 C 206.64 219.79 206.21 219.30 205.23 219.37 C 202.75 219.57 201.29 213.56 203.33 211.53 C 204.19 210.66 206.62 207.83 208.70 205.24 C 210.79 202.64 213.19 199.75 214.03 198.80 C 216.00 196.61 224.34 181.00 223.55 181.00 C 223.22 181.00 223.68 179.90 224.56 178.55 C 225.44 177.21 226.14 175.86 226.11 175.56 C 226.08 175.26 226.24 174.45 226.47 173.76 C 231.38 159.05 233.15 148.27 233.84 129.00 C 234.39 113.59 234.58 111.92 235.00 119.00 C 235.65 130.11 234.47 145.91 232.01 159.00 C 228.63 176.96 228.62 176.81 232.60 181.44 C 237.66 187.31 238.00 187.79 238.00 189.07 C 238.00 189.73 238.84 190.01 239.93 189.73 C 241.36 189.36 241.70 189.62 241.26 190.78 C 240.83 191.88 241.04 192.09 241.98 191.51 C 242.78 191.02 243.07 191.08 242.71 191.66 C 242.38 192.19 243.77 194.48 245.81 196.75 C 247.84 199.02 251.24 202.94 253.37 205.45 C 255.55 208.03 257.96 209.92 258.87 209.77 C 260.03 209.58 260.43 210.16 260.26 211.75 C 260.12 213.13 260.57 214.00 261.43 214.00 C 262.20 214.00 263.04 214.56 263.29 215.25 C 263.96 217.11 269.09 211.91 271.63 206.79 C 277.00 196.01 281.13 183.49 282.55 173.70 C 282.93 171.07 283.46 169.13 283.73 169.40 C 284.56 170.23 282.06 182.72 279.34 191.31 C 276.94 198.91 269.82 215.07 267.83 217.44 C 267.34 218.02 264.30 222.10 261.06 226.50 C 252.48 238.17 240.64 250.00 237.53 250.00 C 236.69 250.00 236.00 250.35 236.00 250.79 C 236.00 251.22 235.11 251.57 234.02 251.57 C 232.74 251.57 231.69 250.56 231.04 248.70Z"/></g>
<g fill="#9404DAFF">
<path d="M 66.49 98.50 C 76.06 89.13 87.23 82.12 100.26 77.30 C 112.33 72.83 116.00 71.12 116.00 69.95 C 116.00 69.42 117.12 68.01 118.50 66.81 C 119.88 65.62 121.00 64.00 121.00 63.21 C 121.00 62.41 121.60 62.02 122.39 62.32 C 123.84 62.87 128.00 59.64 128.00 57.96 C 128.00 57.43 128.62 57.00 129.39 57.00 C 130.15 57.00 131.57 55.31 132.55 53.25 C 133.53 51.19 134.51 50.03 134.73 50.68 C 134.96 51.37 136.32 50.60 138.04 48.80 C 139.65 47.12 140.75 45.40 140.49 44.99 C 140.23 44.57 140.91 43.99 142.00 43.71 C 143.09 43.43 144.42 42.03 144.96 40.62 C 145.61 38.89 146.44 38.23 147.47 38.63 C 148.56 39.04 149.00 38.58 149.00 37.01 C 149.00 35.65 149.76 34.61 151.00 34.29 C 153.33 33.68 153.44 33.29 151.75 31.64 C 150.12 30.06 144.38 28.45 134.77 26.88 C 130.53 26.19 127.23 25.44 127.45 25.21 C 128.10 24.56 146.09 27.04 151.00 28.45 C 163.90 32.17 182.69 44.03 181.32 47.60 C 181.03 48.37 181.26 49.00 181.83 49.00 C 183.33 49.00 181.11 52.98 177.75 56.34 C 176.21 57.88 174.99 58.52 174.97 57.80 C 174.95 57.02 174.52 57.22 173.91 58.27 C 171.97 61.59 164.98 68.11 164.00 67.50 C 163.45 67.16 163.28 67.57 163.62 68.45 C 163.97 69.36 163.65 70.06 162.86 70.15 C 162.11 70.24 161.05 70.36 160.50 70.43 C 159.95 70.50 159.03 70.85 158.45 71.21 C 157.88 71.57 151.80 72.62 144.95 73.53 C 138.10 74.45 131.82 75.44 131.00 75.73 C 130.18 76.02 128.38 76.41 127.01 76.59 C 125.65 76.77 124.37 77.39 124.18 77.96 C 123.99 78.54 123.44 78.77 122.96 78.47 C 121.88 77.81 108.68 84.25 104.33 87.56 C 102.57 88.90 99.98 90.44 98.57 90.97 C 97.16 91.51 96.00 92.41 96.00 92.98 C 96.00 93.54 94.85 94.00 93.44 94.00 C 92.03 94.00 91.14 93.58 91.46 93.07 C 91.77 92.56 91.58 91.86 91.02 91.51 C 90.46 91.16 90.00 89.76 90.00 88.38 C 90.00 87.01 89.58 86.14 89.07 86.46 C 88.56 86.77 87.84 86.55 87.48 85.97 C 87.03 85.24 86.35 85.30 85.31 86.16 C 84.48 86.85 83.20 87.50 82.47 87.61 C 80.23 87.94 71.83 94.08 64.91 100.44 C 60.98 104.06 61.61 103.28 66.49 98.50Z"/></g>
<g fill="#6407B7FF">
<path d="M 67.40 141.61 C 67.08 140.77 65.99 139.81 64.97 139.49 C 63.96 139.17 62.99 137.91 62.81 136.70 C 62.62 135.33 61.85 134.55 60.76 134.64 C 59.80 134.71 59.25 134.41 59.52 133.96 C 60.22 132.83 57.88 127.95 56.93 128.55 C 56.50 128.81 55.86 128.12 55.50 127.01 C 55.15 125.91 54.00 125.00 52.93 125.00 C 51.87 125.00 50.66 124.97 50.25 124.92 C 49.84 124.88 49.05 125.67 48.50 126.67 C 47.95 127.68 47.18 128.74 46.79 129.04 C 46.40 129.33 44.93 132.03 43.52 135.04 C 42.12 138.04 41.24 139.38 41.57 138.00 C 43.71 129.00 53.85 112.22 62.94 102.63 C 68.57 96.69 79.84 87.99 82.40 87.62 C 83.17 87.50 84.48 86.85 85.31 86.16 C 86.35 85.30 87.03 85.24 87.48 85.97 C 87.84 86.55 88.56 86.77 89.07 86.46 C 89.58 86.14 90.00 87.01 90.00 88.38 C 90.00 89.76 90.46 91.16 91.02 91.51 C 91.58 91.86 91.77 92.56 91.46 93.07 C 91.14 93.58 92.03 94.00 93.44 94.00 C 94.85 94.00 96.00 93.54 96.00 92.98 C 96.00 92.41 97.16 91.51 98.57 90.97 C 99.98 90.44 102.57 88.90 104.33 87.56 C 107.56 85.10 121.29 77.98 122.72 78.03 C 123.15 78.04 120.24 79.78 116.26 81.89 C 112.28 84.01 106.66 87.57 103.76 89.81 C 98.60 93.80 88.41 104.01 88.60 105.00 C 88.65 105.28 87.98 106.05 87.10 106.72 C 86.22 107.39 85.84 107.95 86.25 107.97 C 86.66 107.99 86.08 108.92 84.96 110.04 C 83.84 111.16 83.24 112.58 83.62 113.19 C 84.00 113.81 83.86 114.03 83.30 113.69 C 82.05 112.91 79.73 117.75 80.64 119.23 C 81.02 119.85 80.84 120.02 80.23 119.64 C 78.92 118.83 77.58 122.51 78.59 124.15 C 79.03 124.86 78.87 125.04 78.19 124.62 C 77.09 123.93 74.99 129.78 73.23 138.50 C 72.61 141.55 71.90 142.58 70.20 142.82 C 68.91 143.01 67.75 142.51 67.40 141.61Z"/></g>
<g fill="#6407B7FF">
<path d="M 202.37 91.30 C 200.24 89.49 197.94 88.22 197.26 88.47 C 196.58 88.72 196.13 88.38 196.26 87.71 C 196.39 87.05 195.72 86.56 194.76 86.64 C 193.80 86.71 193.25 86.40 193.54 85.94 C 194.26 84.76 190.20 82.76 188.82 83.61 C 188.20 84.00 187.96 83.87 188.30 83.32 C 189.00 82.20 182.32 78.69 181.02 79.49 C 180.55 79.78 180.02 79.58 179.84 79.06 C 179.65 78.53 177.96 77.84 176.08 77.51 C 174.21 77.18 172.29 76.68 171.82 76.39 C 171.36 76.10 166.82 75.05 161.74 74.04 C 156.66 73.04 153.71 72.17 155.19 72.11 C 156.67 72.05 158.16 71.54 158.51 70.98 C 158.86 70.42 159.52 70.20 159.98 70.49 C 161.46 71.40 164.13 69.79 163.57 68.32 C 163.27 67.54 163.46 67.17 164.00 67.50 C 164.98 68.11 171.97 61.59 173.91 58.27 C 174.52 57.22 174.95 57.02 174.97 57.80 C 174.99 58.52 176.21 57.88 177.75 56.34 C 181.11 52.98 183.33 49.00 181.83 49.00 C 181.26 49.00 181.03 48.37 181.32 47.60 C 181.98 45.90 177.15 41.35 170.66 37.54 C 168.05 36.01 166.13 34.54 166.39 34.27 C 167.48 33.18 183.69 43.94 189.71 49.75 C 193.27 53.19 195.84 56.00 195.42 56.00 C 195.00 56.00 195.59 57.01 196.73 58.25 C 197.87 59.49 200.36 63.08 202.24 66.24 C 204.13 69.40 206.00 71.67 206.39 71.27 C 206.78 70.88 206.84 71.26 206.51 72.11 C 206.19 72.95 206.86 75.85 208.02 78.54 C 210.17 83.55 211.31 90.31 210.47 93.04 C 209.72 95.50 206.52 94.82 202.37 91.30Z"/></g>
<g fill="#9404DAFF">
<path d="M 27.80 198.75 C 25.37 194.93 22.28 185.99 19.47 174.64 C 16.92 164.31 16.81 162.88 17.30 145.64 C 17.58 135.66 18.35 125.33 19.00 122.68 C 20.83 115.26 21.15 117.71 19.49 126.41 C 17.70 135.73 17.58 147.56 19.16 157.15 C 19.99 162.18 20.57 163.72 21.21 162.59 C 21.70 161.71 22.59 161.00 23.20 161.00 C 24.67 161.00 31.37 154.04 30.62 153.29 C 30.29 152.96 31.46 151.64 33.21 150.35 C 34.96 149.06 36.05 148.00 35.64 148.00 C 35.22 148.00 35.59 147.00 36.44 145.78 C 37.30 144.56 38.00 142.76 38.00 141.78 C 38.00 140.80 38.45 140.00 39.00 140.00 C 39.55 140.00 40.00 139.17 40.00 138.17 C 40.00 137.16 40.34 136.00 40.75 135.58 C 41.16 135.17 41.52 134.53 41.55 134.17 C 41.63 133.03 47.00 123.00 47.53 123.00 C 47.81 123.00 46.96 125.14 45.66 127.75 C 42.82 133.42 38.65 145.99 36.62 155.00 C 35.38 160.50 32.07 189.33 31.65 198.25 C 31.49 201.58 29.74 201.81 27.80 198.75Z"/></g>
<g fill="#6407B7FF">
<path d="M 34.30 217.58 C 34.27 216.99 32.61 213.80 30.60 210.51 C 26.87 204.40 21.63 189.71 20.61 182.50 L 20.05 178.50 L 21.13 182.00 C 21.72 183.93 23.15 187.97 24.29 191.00 C 28.33 201.70 31.30 203.98 31.78 196.75 C 31.94 194.41 32.70 186.88 33.47 180.00 L 34.87 167.50 L 34.38 178.00 C 33.92 187.88 35.28 212.00 36.56 216.58 C 36.96 217.98 36.68 218.67 35.74 218.67 C 34.97 218.67 34.32 218.18 34.30 217.58Z"/></g>
<g fill="#2E0886FF">
<path d="M 210.71 102.00 C 205.53 95.28 197.67 88.76 188.36 83.45 C 184.06 81.00 180.89 79.00 181.30 79.00 C 183.12 79.00 194.05 85.19 200.00 89.59 C 206.93 94.71 209.68 95.63 210.46 93.08 C 212.30 87.08 205.23 68.70 197.13 58.44 C 196.23 57.31 197.00 57.98 198.84 59.94 C 202.68 64.04 210.15 78.94 212.41 87.00 C 214.11 93.07 215.97 107.02 215.07 106.96 C 214.76 106.93 212.80 104.70 210.71 102.00Z"/></g>
</svg>
