<?xml version="1.0" encoding="UTF-8"?>
<svg xmlns="http://www.w3.org/2000/svg"
     width="32"
     height="32"
     viewBox="0 0 16 16"
     aria-label="VIP"
     role="img">
  <path fill="currentColor" d="M4 2.25h8a1.75 1.75 0 0 1 1.75 1.75v5.25A1.75 1.75 0 0 1 12 11H9.4l-1.04 1.56a.42.42 0 0 1-.72 0L6.6 11H4A1.75 1.75 0 0 1 2.25 9.25V4A1.75 1.75 0 0 1 4 2.25ZM3.75 4v5.25c0 .14.11.25.25.25h3.4c.14 0 .27.07.35.19l.65.97.65-.97c.08-.12.21-.19.35-.19H12c.14 0 .25-.11.25-.25V4c0-.14-.11-.25-.25-.25H4c-.14 0-.25.11-.25.25Z"/>
  <path fill="currentColor" d="M4.7 7.9 3.55 5.55h.95l.73 1.55.74-1.55h.93L5.75 7.9H4.7Zm3.2 0V5.55h.88V7.9H7.9Zm2.0 0V5.55h1.02c.83 0 1.33.41 1.33 1.05s-.5 1.05-1.33 1.05h-.14V7.9H9.9Zm.88-.93h.12c.37 0 .6-.13.6-.37s-.23-.37-.6-.37h-.12v.74Z"/>
</svg>