<svg xmlns="http://www.w3.org/2000/svg" width="16" height="16" viewBox="0 0 16 16" shape-rendering="crispEdges">
  <!-- Pins top -->
  <rect x="3" y="0" width="1" height="2" fill="#000"/>
  <rect x="6" y="0" width="1" height="2" fill="#000"/>
  <rect x="9" y="0" width="1" height="2" fill="#000"/>
  <rect x="12" y="0" width="1" height="2" fill="#000"/>

  <!-- Pins bottom -->
  <rect x="3" y="14" width="1" height="2" fill="#000"/>
  <rect x="6" y="14" width="1" height="2" fill="#000"/>
  <rect x="9" y="14" width="1" height="2" fill="#000"/>
  <rect x="12" y="14" width="1" height="2" fill="#000"/>

  <!-- Pins left -->
  <rect x="0" y="3" width="2" height="1" fill="#000"/>
  <rect x="0" y="6" width="2" height="1" fill="#000"/>
  <rect x="0" y="9" width="2" height="1" fill="#000"/>
  <rect x="0" y="12" width="2" height="1" fill="#000"/>

  <!-- Pins right -->
  <rect x="14" y="3" width="2" height="1" fill="#000"/>
  <rect x="14" y="6" width="2" height="1" fill="#000"/>
  <rect x="14" y="9" width="2" height="1" fill="#000"/>
  <rect x="14" y="12" width="2" height="1" fill="#000"/>

  <!-- Chip body -->
  <rect x="2" y="2" width="12" height="12" rx="1" fill="none" stroke="#000" stroke-width="1"/>

  <!-- 32 text -->
  <text x="8" y="10.5"
        font-family="monospace"
        font-size="6"
        text-anchor="middle"
        fill="#000"
        font-weight="bold">
    32
  </text>
</svg>
