<svg xmlns="http://www.w3.org/2000/svg" version="1.0" width="710.000000pt" height="711.000000pt" viewBox="0 0 710.000000 711.000000" preserveAspectRatio="xMidYMid meet" transform="matrix(-1, 0, 0, -1, 0, 0)">

<g transform="translate(0.000000,711.000000) scale(0.100000,-0.100000)" fill="#010c5e" stroke="none">
<path d="M3300 6326 l0 -684 -27 -6 c-16 -2 -55 -8 -88 -11 -83 -9 -241 -47 -371 -90 -191 -63 -410 -179 -561 -298 l-65 -50 -481 481 -482 482 -160 -160 -160 -160 335 -338 c184 -185 400 -403 479 -483 l144 -147 -45 -58 c-197 -256 -340 -605 -398 -971 l-12 -73 -679 0 -679 0 0 -225 0 -225 679 0 678 0 13 -77 c19 -121 75 -338 115 -448 72 -200 155 -352 297 -543 l32 -43 -479 -479 -480 -480 160 -160 160 -160 480 480 481 481 79 -59 c276 -201 597 -336 921 -386 56 -9 104 -16 108 -16 3 0 6 -306 6 -680 l0 -680 220 0 220 0 0 679 0 679 73 11 c356 55 692 194 976 405 l65 47 480 -480 481 -481 160 160 160 160 -480 480 c-376 376 -478 483 -470 494 6 8 39 56 75 106 187 261 309 575 351 898 l12 92 683 0 684 0 0 225 0 225 -684 0 -683 0 -13 93 c-44 330 -173 654 -367 921 l-65 89 144 146 c78 80 294 298 478 483 l335 338 -160 160 -160 160 -481 -481 -482 -482 -83 60 c-270 195 -594 328 -904 373 -44 6 -90 14 -102 17 l-23 5 0 684 0 684 -220 0 -220 0 0 -684z m467 -1202 c225 -33 427 -111 618 -237 120 -80 298 -240 376 -337 262 -329 380 -673 366 -1065 -6 -177 -24 -279 -73 -434 -163 -505 -602 -930 -1106 -1070 -262 -73 -596 -73 -856 0 -484 135 -888 506 -1082 993 -114 287 -131 662 -44 983 144 533 602 990 1134 1132 218 58 433 69 667 35z" fill="#010c5e"/>
<path d="M3430 4390 c-378 -36 -693 -328 -760 -706 -16 -89 -8 -287 14 -368 71 -257 221 -438 461 -557 127 -63 213 -82 375 -82 154 0 246 19 359 73 163 79 281 183 375 333 86 137 126 280 126 447 0 254 -92 457 -293 647 -61 58 -99 84 -189 128 -155 75 -295 101 -468 85z" fill="#010c5e"/>
</g>
</svg>