<svg version="1.1" xmlns="http://www.w3.org/2000/svg" xmlns:xlink="http://www.w3.org/1999/xlink" preserveAspectRatio="xMidYMid meet" viewBox="0 0 640 640" width="640" height="640"><defs><path d="M320 640C255.85 639.9 193.31 617.77 132.4 573.61C-45 445.01 -39.53 178.87 143 57.66C200.45 19.51 259.45 0.29 320 0" id="acqrDVy6M"/><clipPath id="clipa8OAmr1OGU"><use xlink:href="#acqrDVy6M" opacity="1"/></clipPath><path d="M641.67 322.67C641.67 337.38 629.72 349.33 615 349.33C600.28 349.33 588.33 337.38 588.33 322.67C588.33 307.95 600.28 296 615 296C629.72 296 641.67 307.95 641.67 322.67Z" id="b8Cd81ys7"/><path d="M555.67 529.67C555.67 544.38 543.72 556.33 529 556.33C514.28 556.33 502.33 544.38 502.33 529.67C502.33 514.95 514.28 503 529 503C543.72 503 555.67 514.95 555.67 529.67Z" id="a8cQU7icb"/><path d="M460.67 592.33C460.67 607.05 448.72 619 434 619C419.28 619 407.33 607.05 407.33 592.33C407.33 577.62 419.28 565.67 434 565.67C448.72 565.67 460.67 577.62 460.67 592.33Z" id="dfezqp9KV"/><path d="M619.67 434.67C619.67 449.38 607.72 461.33 593 461.33C578.28 461.33 566.33 449.38 566.33 434.67C566.33 419.95 578.28 408 593 408C607.72 408 619.67 419.95 619.67 434.67Z" id="a6rBd9rvw"/><path d="M619.33 210.67C619.33 225.38 607.38 237.33 592.67 237.33C577.95 237.33 566 225.38 566 210.67C566 195.95 577.95 184 592.67 184C607.38 184 619.33 195.95 619.33 210.67Z" id="hmXGVWH1M"/><path d="M555.67 116.67C555.67 131.38 543.72 143.33 529 143.33C514.28 143.33 502.33 131.38 502.33 116.67C502.33 101.95 514.28 90 529 90C543.72 90 555.67 101.95 555.67 116.67Z" id="c2SQTzoBNI"/><path d="M460 52.17C460 66.88 448.05 78.83 433.33 78.83C418.62 78.83 406.67 66.88 406.67 52.17C406.67 37.45 418.62 25.5 433.33 25.5C448.05 25.5 460 37.45 460 52.17Z" id="bHV6iEPkA"/><path d="M515 320C522.74 392.14 478.26 537.92 317.97 538.54C276.43 538.7 235.39 522.55 194.86 490.09C85.56 402.55 89 235.18 201.8 152.2C240.13 124.01 278.86 110.19 317.97 110.75C413.39 112.12 457.66 157.56 486.89 189.17" id="i1xtuuRQ8B"/><clipPath id="clipe2Upk7n0GM"><use xlink:href="#i1xtuuRQ8B" opacity="1"/></clipPath><path d="M366.02 343.47L513.02 344.13" id="b6isRrcIM"/><path d="M366.76 367.52L321.37 367.24L365.95 319.62L366.76 367.52Z" id="a2PPuicRU"/></defs><g><g><g><g clip-path="url(#clipa8OAmr1OGU)"><use xlink:href="#acqrDVy6M" opacity="1" fill-opacity="0" stroke="#000000" stroke-width="106.67" stroke-opacity="1"/></g></g><g><use xlink:href="#b8Cd81ys7" opacity="1" fill="#000000" fill-opacity="1"/></g><g><use xlink:href="#a8cQU7icb" opacity="1" fill="#000000" fill-opacity="1"/></g><g><use xlink:href="#dfezqp9KV" opacity="1" fill="#000000" fill-opacity="1"/></g><g><use xlink:href="#a6rBd9rvw" opacity="1" fill="#000000" fill-opacity="1"/></g><g><use xlink:href="#hmXGVWH1M" opacity="1" fill="#000000" fill-opacity="1"/></g><g><use xlink:href="#c2SQTzoBNI" opacity="1" fill="#000000" fill-opacity="1"/></g><g><use xlink:href="#bHV6iEPkA" opacity="1" fill="#000000" fill-opacity="1"/></g><g><g clip-path="url(#clipe2Upk7n0GM)"><use xlink:href="#i1xtuuRQ8B" opacity="1" fill-opacity="0" stroke="#000000" stroke-width="106.67" stroke-opacity="1"/></g></g><g><g><use xlink:href="#b6isRrcIM" opacity="1" fill-opacity="0" stroke="#000000" stroke-width="48" stroke-opacity="1"/></g></g><g><use xlink:href="#a2PPuicRU" opacity="1" fill="#000000" fill-opacity="1"/></g></g></g></svg>