<?xml version="1.0" standalone="no"?>
<!DOCTYPE svg PUBLIC "-//W3C//DTD SVG 20010904//EN"
 "http://www.w3.org/TR/2001/REC-SVG-20010904/DTD/svg10.dtd">
<svg version="1.0" xmlns="http://www.w3.org/2000/svg"
 width="200.000000pt" height="190.000000pt" viewBox="0 0 200.000000 190.000000"
 preserveAspectRatio="xMidYMid meet">

<g transform="translate(0.000000,190.000000) scale(0.100000,-0.100000)"
fill="#000000" stroke="none">
<path d="M510 1543 c-245 -178 -452 -328 -460 -333 -8 -5 -12 -11 -9 -15 11
-11 424 -126 439 -122 8 2 120 75 248 163 l232 159 0 237 c0 131 -1 238 -2
237 -2 0 -203 -147 -448 -326z"/>
<path d="M1040 1637 l0 -232 251 -171 250 -172 207 60 c114 33 210 63 214 67
4 3 -53 49 -125 102 -73 52 -282 204 -464 337 l-333 241 0 -232z"/>
<path d="M85 918 c35 -106 114 -348 175 -537 62 -189 115 -339 120 -335 12 13
260 395 260 400 0 5 -182 537 -185 542 -3 3 -417 122 -427 122 -3 0 22 -87 57
-192z"/>
<path d="M1755 1043 c-104 -31 -192 -59 -195 -64 -3 -4 -47 -129 -98 -277
l-93 -269 128 -196 c77 -120 130 -192 134 -184 8 14 339 1030 339 1040 0 12
-20 7 -215 -50z"/>
<path d="M584 213 c-71 -108 -130 -200 -132 -205 -2 -4 244 -8 547 -8 303 0
551 3 550 8 0 4 -58 95 -128 202 l-127 195 -290 3 -291 2 -129 -197z"/>
</g>
</svg>
