<svg viewBox="0 0 512 512" xmlns="http://www.w3.org/2000/svg" fill-rule="evenodd" clip-rule="evenodd" stroke-linejoin="round" stroke-miterlimit="2"><path d="M14 7.996c-5.507 0-9.971-1.556-9.971-3.609v19.226c0 1.976 4.386 3.578 9.831 3.609H14c5.507 0 9.971-1.555 9.971-3.609V4.387c0 2.006-4.464 3.609-9.971 3.609z" fill="url(#prefix___Linear1)" fill-rule="nonzero" transform="matrix(17.85716 0 0 17.85716 5.999 5.999)"/><path d="M434.053 84.338c0 35.822-79.715 64.447-178.054 64.447-98.34 0-178.054-27.786-178.054-64.447 0-36.679 79.715-64.446 178.054-64.446 98.34 0 178.054 27.767 178.054 64.446z" fill="#e8e8e8" fill-rule="nonzero"/><path d="M392.66 79.052c0 22.786-61.375 41.108-136.661 41.108s-136.66-18.322-136.66-41.108c0-22.767 61.374-40.839 136.66-40.839s136.66 18.34 136.66 40.84z" fill="#50e6ff" fill-rule="nonzero"/><path d="M255.999 89.338a320.67 320.67 0 00-108.054 15.822 316.711 316.711 0 00108.054 15 309.268 309.268 0 00108.054-16.108 328.607 328.607 0 00-108.054-14.714z" fill="#198ab3" fill-rule="nonzero"/><path d="M20.067 17.733v-5.289h-1.4v6.425h3.826v-1.136h-2.426zM8.96 15.136a2.864 2.864 0 01-.793-.483.672.672 0 01-.187-.497.528.528 0 01.233-.467c.192-.132.421-.198.654-.187.554-.025 1.1.134 1.555.451v-1.337a4.005 4.005 0 00-1.555-.249 2.548 2.548 0 00-1.696.529 1.67 1.67 0 00-.653 1.384c0 .793.497 1.415 1.555 1.882.344.146.668.334.965.56a.656.656 0 01.233.498.583.583 0 01-.249.482 1.255 1.255 0 01-.7.171 2.578 2.578 0 01-1.695-.653v1.447a3.37 3.37 0 001.664.373 2.926 2.926 0 001.836-.513 1.69 1.69 0 00.513-1.416 1.638 1.638 0 00-.389-1.089 3.743 3.743 0 00-1.291-.886zm8.151 2.473a3.64 3.64 0 00.513-1.96A3.608 3.608 0 0017.111 14a2.817 2.817 0 00-1.089-1.167 3.113 3.113 0 00-1.555-.404 3.278 3.278 0 00-1.68.42A2.892 2.892 0 0011.651 14a3.826 3.826 0 00-.404 1.773c.003.541.131 1.073.373 1.556.237.48.61.881 1.073 1.151.47.287 1.006.447 1.556.467l1.338 1.555h1.882l-1.913-1.711a2.784 2.784 0 001.555-1.182zm-1.555-.389a1.463 1.463 0 01-1.183.544 1.424 1.424 0 01-1.182-.56c-.329-.449-.488-1-.451-1.555a2.38 2.38 0 01.451-1.556 1.548 1.548 0 011.213-.575 1.353 1.353 0 011.167.575c.307.459.454 1.005.42 1.556a2.276 2.276 0 01-.435 1.571z" fill="url(#prefix___Radial2)" fill-rule="nonzero" transform="matrix(17.85716 0 0 17.85716 5.999 5.999)"/><defs><radialGradient id="prefix___Radial2" cx="0" cy="0" r="1" gradientUnits="userSpaceOnUse" gradientTransform="translate(14.56 16.442) scale(10.9978)"><stop offset="0" stop-color="#f2f2f2"/><stop offset=".58" stop-color="#eee"/><stop offset="1" stop-color="#e6e6e6"/></radialGradient><linearGradient id="prefix___Linear1" x1="0" y1="0" x2="1" y2="0" gradientUnits="userSpaceOnUse" gradientTransform="translate(4.029 15.805) scale(19.9422)"><stop offset="0" stop-color="#005ba1"/><stop offset=".07" stop-color="#0060a9"/><stop offset=".36" stop-color="#0071c8"/><stop offset=".52" stop-color="#0078d4"/><stop offset=".64" stop-color="#0074cd"/><stop offset=".82" stop-color="#006abb"/><stop offset="1" stop-color="#005ba1"/></linearGradient></defs></svg>