<?xml version="1.0" encoding="iso-8859-1"?>
<!-- Uploaded to: SVG Repo, www.svgrepo.com, Generator: SVG Repo Mixer Tools -->
<!DOCTYPE svg PUBLIC "-//W3C//DTD SVG 1.1//EN" "http://www.w3.org/Graphics/SVG/1.1/DTD/svg11.dtd">
<svg fill="#000000" height="800px" width="800px" version="1.1" id="Capa_1" xmlns="http://www.w3.org/2000/svg" xmlns:xlink="http://www.w3.org/1999/xlink" 
	 viewBox="0 0 370 370" xml:space="preserve">
<g>
	<path d="M368.297,45.767c-1.456-1.278-3.52-1.598-5.298-0.824c-21.751,9.497-42.599,14.113-63.734,14.113
		c-17.318,0-35.445-2.986-58.776-9.682c-2.659-0.765-5.419,0.77-6.183,3.42l-34.38,119.119c-0.368,1.275-0.214,2.645,0.428,3.806
		c0.643,1.162,1.721,2.02,2.996,2.387c24.26,6.963,43.237,10.069,61.531,10.069h0.001c22.538,0,44.697-4.889,67.739-14.946
		c1.363-0.595,2.392-1.767,2.804-3.196l34.379-119.121C370.342,49.051,369.754,47.045,368.297,45.767z"/>
	<path d="M48.82,173.647c0.676,0,1.356-0.137,2-0.417c21.751-9.497,42.599-14.113,63.732-14.113c17.317,0,35.444,2.986,58.776,9.682
		c2.652,0.761,5.418-0.77,6.182-3.419L213.89,46.26c0.368-1.275,0.214-2.645-0.428-3.806c-0.643-1.162-1.722-2.02-2.996-2.387
		c-24.265-6.965-43.243-10.071-61.534-10.071c-22.539,0-44.695,4.889-67.734,14.947c-1.364,0.595-2.392,1.767-2.805,3.196
		L44.015,167.26c-0.538,1.862,0.05,3.867,1.507,5.145C46.451,173.221,47.627,173.647,48.82,173.647z"/>
	<path d="M169.643,194.282c-0.642-1.162-1.721-2.02-2.996-2.386c-24.266-6.964-43.244-10.07-61.535-10.07
		c-22.539,0-44.693,4.889-67.732,14.946c-1.364,0.595-2.392,1.767-2.804,3.196L0.197,319.089c-0.538,1.862,0.05,3.867,1.507,5.145
		c0.93,0.815,2.106,1.241,3.298,1.241c0.676,0,1.356-0.137,2-0.417c21.751-9.497,42.599-14.113,63.733-14.113
		c17.318,0,35.445,2.986,58.775,9.683c2.656,0.76,5.419-0.771,6.184-3.42l34.378-119.119
		C170.44,196.814,170.285,195.444,169.643,194.282z"/>
	<path d="M319.182,196.772c-21.751,9.497-42.599,14.113-63.733,14.113c-17.316,0-35.444-2.986-58.778-9.682
		c-2.655-0.762-5.419,0.769-6.183,3.419l-34.378,119.12c-0.369,1.275-0.215,2.645,0.428,3.806c0.642,1.162,1.72,2.02,2.996,2.386
		c24.262,6.963,43.238,10.068,61.529,10.068c22.539,0,44.697-4.889,67.74-14.946c1.363-0.595,2.391-1.767,2.804-3.196l34.38-119.121
		c0.539-1.862-0.05-3.868-1.507-5.146C323.023,196.319,320.96,195.998,319.182,196.772z"/>
</g>
</svg>