<?xml version="1.0" encoding="iso-8859-1"?>
<!-- Uploaded to: SVG Repo, www.svgrepo.com, Generator: SVG Repo Mixer Tools -->
<!DOCTYPE svg PUBLIC "-//W3C//DTD SVG 1.1//EN" "http://www.w3.org/Graphics/SVG/1.1/DTD/svg11.dtd">
<svg fill="#000000" version="1.1" id="Capa_1" xmlns="http://www.w3.org/2000/svg" xmlns:xlink="http://www.w3.org/1999/xlink" 
	 width="800px" height="800px" viewBox="0 0 22.011 22.012"
	 xml:space="preserve">
<g>
	<path d="M10.061,10.415c-0.002-0.046-0.002-0.092-0.002-0.138c0-2.766,0-5.532,0.002-8.298c0-0.074-0.01-0.148,0.015-0.23
		C10.792,1.62,21.803,0.001,21.972,0c0.004,0.044,0.01,0.089,0.012,0.134c0.021,2.112,0.01,10.146-0.02,10.337
		c-0.029,0.003-0.062,0.01-0.096,0.011c-0.2,0.001-0.4,0.001-0.604,0.002c-3.654,0.015-7.311,0.03-10.966,0.044
		c-0.073,0-0.146,0.008-0.229-0.011C10.067,10.481,10.062,10.447,10.061,10.415z M21.959,11.627
		c-0.058-0.029-0.12-0.018-0.183-0.018c-0.799-0.006-1.596-0.013-2.394-0.016c-2.116-0.008-4.233-0.015-6.353-0.023
		c-0.924-0.002-1.847-0.01-2.771-0.014c-0.062,0-0.126-0.014-0.188,0.018c-0.023,0.066-0.015,0.137-0.015,0.203
		c-0.002,2.789-0.002,5.578-0.002,8.367c0,0.033-0.001,0.068,0.002,0.104c0.002,0.031,0.011,0.064,0.017,0.105
		c3.951,0.553,7.896,1.106,11.842,1.658c0.016,0.002,0.032-0.006,0.053-0.01c0.004-0.023,0.011-0.045,0.011-0.067
		c0-3.425-0.002-6.851-0.004-10.276C21.978,11.65,21.967,11.64,21.959,11.627z M8.942,11.554c-2.949-0.013-5.896-0.024-8.846-0.036
		c-0.016,0-0.031,0.008-0.055,0.016c-0.006,0.026-0.012,0.055-0.014,0.082c-0.019,0.467-0.006,7.166,0.018,7.332
		c2.962,0.416,5.919,0.83,8.876,1.244c0.021,0.004,0.044-0.002,0.065-0.004c0.008-0.021,0.017-0.035,0.017-0.052
		c0.002-2.839,0.002-5.679,0.002-8.519c0-0.017-0.01-0.031-0.014-0.051C8.973,11.562,8.958,11.554,8.942,11.554z M8.958,1.914
		C6.054,2.34,3.149,2.768,0.246,3.196C0.179,3.205,0.112,3.221,0.039,3.235c-0.002,0.051-0.01,0.095-0.01,0.14
		c-0.022,1.715-0.011,7.007,0.021,7.199c0.069,0.001,0.133,0.003,0.194,0.003c2.771-0.012,5.543-0.023,8.313-0.035
		c0.109,0,0.22,0,0.327-0.003c0.037-0.001,0.075-0.013,0.121-0.021c0-2.849,0-5.688,0-8.528c0-0.022-0.008-0.044-0.012-0.063
		C8.979,1.921,8.967,1.912,8.958,1.914z"/>
</g>
</svg>